<?xml version="1.0" encoding="utf-8"?>
<!-- Generator: Adobe Illustrator 26.2.1, SVG Export Plug-In . SVG Version: 6.00 Build 0)  -->
<svg version="1.1" id="Layer_1" xmlns="http://www.w3.org/2000/svg" xmlns:xlink="http://www.w3.org/1999/xlink" x="0px" y="0px"
	 viewBox="0 0 5669.29 1417.32" style="enable-background:new 0 0 5669.29 1417.32;" xml:space="preserve">
<style type="text/css">
	.st0{fill:#C9C9C9;stroke:#5E5E5E;stroke-miterlimit:10;}
	.st1{fill:#C9C9C9;stroke:#5E5E5E;stroke-width:47;stroke-miterlimit:10;}
	.st2{clip-path:url(#SVGID_00000080889831631139452790000012876688580191427240_);}
	.st3{fill:#C9C9C9;stroke:#5E5E5E;stroke-width:15;stroke-miterlimit:10;}
	.st4{clip-path:url(#SVGID_00000093168213673763811740000017048394144446408846_);}
	.st5{clip-path:url(#SVGID_00000015353154798520898160000012322982821940732546_);}
	.st6{clip-path:url(#SVGID_00000116940702096794980420000004439709777629963949_);}
</style>
<rect x="-71.15" y="-130.86" class="st0" width="5810" height="1700"/>
<line class="st1" x1="0" y1="966.83" x2="5669.29" y2="966.83"/>
<line class="st1" x1="0" y1="456.83" x2="5669.29" y2="456.83"/>
<g>
	<defs>
		<rect id="SVGID_1_" x="71.87" y="966.83" width="5645.3" height="460.83"/>
	</defs>
	<clipPath id="SVGID_00000041254388623431374060000013502362122813724324_">
		<use xlink:href="#SVGID_1_"  style="overflow:visible;"/>
	</clipPath>
	<g style="clip-path:url(#SVGID_00000041254388623431374060000013502362122813724324_);">
		<g>
			<line class="st3" x1="77.17" y1="972.14" x2="527.66" y2="1422.63"/>
		</g>
		<g>
			<line class="st3" x1="678.77" y1="972.14" x2="1129.26" y2="1422.63"/>
		</g>
		<g>
			<line class="st3" x1="1280.36" y1="972.14" x2="1730.85" y2="1422.63"/>
		</g>
		<g>
			<line class="st3" x1="1881.96" y1="972.14" x2="2332.45" y2="1422.63"/>
		</g>
		<g>
			<line class="st3" x1="2483.55" y1="972.14" x2="2934.04" y2="1422.63"/>
		</g>
		<g>
			<line class="st3" x1="3085.15" y1="972.14" x2="3535.64" y2="1422.63"/>
		</g>
		<g>
			<line class="st3" x1="3686.74" y1="972.14" x2="4137.23" y2="1422.63"/>
		</g>
		<g>
			<line class="st3" x1="4288.34" y1="972.14" x2="4738.83" y2="1422.63"/>
		</g>
		<g>
			<line class="st3" x1="4889.93" y1="972.14" x2="5340.42" y2="1422.63"/>
		</g>
		<g>
			<line class="st3" x1="5491.53" y1="972.14" x2="5942.02" y2="1422.63"/>
		</g>
	</g>
</g>
<g>
	<defs>
		<rect id="SVGID_00000071557225401668212920000014409074365013899149_" x="71.87" y="966.83" width="5645.3" height="460.83"/>
	</defs>
	<clipPath id="SVGID_00000147177711809182596570000001240401288666420614_">
		<use xlink:href="#SVGID_00000071557225401668212920000014409074365013899149_"  style="overflow:visible;"/>
	</clipPath>
	<g style="clip-path:url(#SVGID_00000147177711809182596570000001240401288666420614_);">
		<g>
			<line class="st3" x1="77.17" y1="972.14" x2="527.66" y2="1422.63"/>
		</g>
		<g>
			<line class="st3" x1="678.77" y1="972.14" x2="1129.26" y2="1422.63"/>
		</g>
		<g>
			<line class="st3" x1="1280.36" y1="972.14" x2="1730.85" y2="1422.63"/>
		</g>
		<g>
			<line class="st3" x1="1881.96" y1="972.14" x2="2332.45" y2="1422.63"/>
		</g>
		<g>
			<line class="st3" x1="2483.55" y1="972.14" x2="2934.04" y2="1422.63"/>
		</g>
		<g>
			<line class="st3" x1="3085.15" y1="972.14" x2="3535.64" y2="1422.63"/>
		</g>
		<g>
			<line class="st3" x1="3686.74" y1="972.14" x2="4137.23" y2="1422.63"/>
		</g>
		<g>
			<line class="st3" x1="4288.34" y1="972.14" x2="4738.83" y2="1422.63"/>
		</g>
		<g>
			<line class="st3" x1="4889.93" y1="972.14" x2="5340.42" y2="1422.63"/>
		</g>
		<g>
			<line class="st3" x1="5491.53" y1="972.14" x2="5942.02" y2="1422.63"/>
		</g>
	</g>
</g>
<g>
	<defs>
		<rect id="SVGID_00000170257117413182250510000010309843387680148372_" x="-173.24" y="448.17" width="6023.64" height="512.79"/>
	</defs>
	<clipPath id="SVGID_00000127728357335204905860000009604160840798202527_">
		<use xlink:href="#SVGID_00000170257117413182250510000010309843387680148372_"  style="overflow:visible;"/>
	</clipPath>
	<g style="clip-path:url(#SVGID_00000127728357335204905860000009604160840798202527_);">
		<g>
			<line class="st3" x1="-168.13" y1="453.66" x2="379.75" y2="963.66"/>
		</g>
		<g>
			<line class="st3" x1="444.47" y1="453.66" x2="992.35" y2="963.66"/>
		</g>
		<g>
			<line class="st3" x1="1057.07" y1="453.66" x2="1604.96" y2="963.66"/>
		</g>
		<g>
			<line class="st3" x1="1669.68" y1="453.66" x2="2217.56" y2="963.66"/>
		</g>
		<g>
			<line class="st3" x1="2282.28" y1="453.66" x2="2830.16" y2="963.66"/>
		</g>
		<g>
			<line class="st3" x1="2894.88" y1="453.66" x2="3442.76" y2="963.66"/>
		</g>
		<g>
			<line class="st3" x1="3507.49" y1="453.66" x2="4055.37" y2="963.66"/>
		</g>
		<g>
			<line class="st3" x1="4120.09" y1="453.66" x2="4667.97" y2="963.66"/>
		</g>
		<g>
			<line class="st3" x1="4732.69" y1="453.66" x2="5280.57" y2="963.66"/>
		</g>
		<g>
			<line class="st3" x1="5345.29" y1="453.66" x2="5893.17" y2="963.66"/>
		</g>
	</g>
</g>
<g>
	<defs>
		<rect id="SVGID_00000150785286748389415600000009320080252017815463_" x="-178.61" y="-5.24" width="6160.68" height="457.12"/>
	</defs>
	<clipPath id="SVGID_00000095314521781810276930000000598906485266720399_">
		<use xlink:href="#SVGID_00000150785286748389415600000009320080252017815463_"  style="overflow:visible;"/>
	</clipPath>
	<g style="clip-path:url(#SVGID_00000095314521781810276930000000598906485266720399_);">
		<g>
			<line class="st3" x1="272.79" y1="456.83" x2="-173.24" y2="0"/>
		</g>
		<g>
			<line class="st3" x1="862.06" y1="456.83" x2="416.02" y2="0"/>
		</g>
		<g>
			<line class="st3" x1="1451.32" y1="456.83" x2="1005.29" y2="0"/>
		</g>
		<g>
			<line class="st3" x1="2040.58" y1="456.83" x2="1594.55" y2="0"/>
		</g>
		<g>
			<line class="st3" x1="2629.85" y1="456.83" x2="2183.82" y2="0"/>
		</g>
		<g>
			<line class="st3" x1="3219.11" y1="456.83" x2="2773.08" y2="0"/>
		</g>
		<g>
			<line class="st3" x1="3808.38" y1="456.83" x2="3362.34" y2="0"/>
		</g>
		<g>
			<line class="st3" x1="4397.64" y1="456.83" x2="3951.61" y2="0"/>
		</g>
		<g>
			<line class="st3" x1="4986.9" y1="456.83" x2="4540.87" y2="0"/>
		</g>
		<g>
			<line class="st3" x1="5576.17" y1="456.83" x2="5130.14" y2="0"/>
		</g>
		<g>
			<line class="st3" x1="6165.43" y1="456.83" x2="5719.4" y2="0"/>
		</g>
	</g>
</g>
</svg>
