<?xml version="1.0" encoding="utf-8"?>
<!-- Generator: Adobe Illustrator 26.2.1, SVG Export Plug-In . SVG Version: 6.00 Build 0)  -->
<svg version="1.1" xmlns="http://www.w3.org/2000/svg" xmlns:xlink="http://www.w3.org/1999/xlink" x="0px" y="0px"
	 viewBox="0 0 1417.32 1417.32" style="enable-background:new 0 0 1417.32 1417.32;" xml:space="preserve">
<style type="text/css">
	.st0{fill:#FBDDD5;stroke:#000000;stroke-width:5;stroke-miterlimit:10;}
	.st1{fill:#CEE1E8;}
	.st2{fill:none;stroke:#000000;stroke-width:5;stroke-miterlimit:10;}
	.st3{fill:#CEE1E8;stroke:#000000;stroke-width:5;stroke-miterlimit:10;}
	.st4{fill:#CF767C;}
	.st5{fill:#F8EBD9;}
</style>
<g id="Layer_15">
	<path class="st0" d="M571.15,459.71c16.14,0.05,32.25-5.06,45.42-14.39c-9.49,32.71-18.98,65.42-28.47,98.13
		c-7.56,26.07-15.2,52.75-13.73,79.85c1.88,34.65,18.89,67.41,42.92,92.45c24.03,25.04,54.71,42.89,88.53,53.59
		c63.61,35.88,129.81,67.16,197.91,93.53c4.54,1.76,9.43,3.77,11.87,7.98c3.75,6.46-0.39,15.14-6.73,19.08
		c-6.34,3.94-14.14,4.48-21.56,5.28c-50.99,5.47-99.93,28.48-136.67,64.26c5.88,1.83,11.77,3.66,17.65,5.49
		c-33.01-2.33-61,27.94-94.09,28.18c-21.63,0.16-41.11-12.6-57.92-26.23C554.74,917.02,508.6,847.71,489.15,770.9
		s-11.58-160.73,24.44-231.3c15.01-29.42,34.72-56.44,58.15-79.72"/>
</g>
<g id="Layer_16">
	<path class="st0" d="M643.65,1020.5c-34.54,11.36-62.19,44.34-98.54,43.73c-24.15-0.41-45.25-15.99-62.9-32.48
		c-51.38-47.98-89.35-109.48-113.09-175.64c-13.98-38.96-23.23-80.81-16.91-121.72c4.36-28.21,15.92-54.72,27.36-80.87
		c4.11-9.38,10.33-20.26,20.57-20.41c12.4-0.18,18.3,14.89,20.97,27c13.71,62.21,32.29,123.35,55.52,182.68
		c14.57,37.2,31.56,74.58,59.77,102.87c22.31,22.37,51.16,38.14,82.03,44.86c8.43,1.83,17.52,3.25,23.91,9.06s7.74,17.92,0.25,22.2"
		/>
</g>
<g id="Layer_14">
	<path class="st1" d="M286.88,684.83c31.13-23.29,64.15-47.38,102.72-52.35c-20.32,77.69-14.06,162.07,17.49,235.91
		s88.22,136.68,158.41,175.69c7.36,4.09,16.04,10.07,14.88,18.41c-0.56,4.04-3.44,7.32-6.26,10.28
		c-53.06,55.6-132.18,85.2-208.7,78.08c-32.07-2.98-64.9-12.87-87.78-35.53c-23.46-23.24-33.44-56.57-40.83-88.75
		c-20.54-89.44-27.68-183.59-5.96-272.76c3.55-14.56,7.99-29.23,16.6-41.5c8.62-12.26,13.95-17.64,28.07-22.58
		c7.17-3.33,10.73-3.44,12.04-5.89"/>
</g>
<g id="Layer_14_copy">
	<path class="st2" d="M277.92,688.68c2.79-1.16,8.02-1.94,9.65-4.84"/>
	<path class="st2" d="M286.88,684.83c24.18-18.09,49.11-36.6,77.98-46.49c8.03-2.75,16.32-4.78,24.74-5.86
		c-5.51,21.07-9.07,42.65-10.7,64.37c-9.81,113.69,36.19,227.69,125.19,304.69c1,1,3,1,4,2c19,18,40,30,62,43c5,3,8,6,9,11
		c3,11-7,19-15,26c-5,4-8,7-13,11c-12,8-21,16-34,22c-1,1-2,2-3,3c-7,4-14,6-21.38,10.03"/>
</g>
<g id="Layer_13">
	<path class="st3" d="M578.1,462.76c-69.73,79.49-97.96,193.52-73.36,296.36c24.59,102.84,101.36,191.76,199.51,231.1
		c-22.02,19.2-46.82,39.49-76.04,39.41c-22.14-0.06-42.39-12.03-60.34-25c-96-69.37-160.94-180.18-174.55-297.84
		c-3.43-29.66-3.63-60.45,6.59-88.5c12.39-34.02,38.76-60.76,64.37-86.34c27.07-27.05,54.41-54.31,86.5-75.16
		c7.47-4.85,16.78-9.47,24.88-5.78c8.1,3.69,7.86,4.42,1.86,12.13"/>
</g>
<g id="Layer_12">
	<path class="st3" d="M565.45,772.27c98.62,84.16,234.13,123.42,362.46,105.01c-26.75,25-55.91,47.42-86.93,66.86
		c-27.43,17.19-57.9,32.43-90.27,31.88c-27.49-0.47-53.5-12.33-77.22-26.22c-30.11-17.63-58.35-39.16-80.18-66.38
		s-37.01-60.47-39.21-95.29c-0.4-6.29,1.11-12.06,3.71-16.83c3.23-5.92,4.19-1.89,8.75,1.9"/>
</g>
<g id="Layer_11">
	<path class="st3" d="M810.38,300.78c-75.45,13.41-143.83,64.42-189.76,125.76s-70.84,136.94-77.64,213.27
		c-1.7,19.07-2.1,39.26,6.81,56.21c7.6,14.46,21.07,24.78,34.34,34.3c64.88,46.57,135.17,85.58,209.02,115.99
		c37.38,15.39,76.78,28.77,117.18,27.27c40.34-1.5,79-17.91,112.55-40.36c33.55-22.46,62.63-50.86,86.59-82.38
		c6.02-17.29-12.78-34.74-31.05-35.73c-18.28-0.99-35.26,8.36-52.2,15.29c-58.46,23.92-129.08,19.02-180.95-17.03
		s-81.36-103.63-67.78-165.32c6.23-28.28,20.49-54.02,33.78-79.75c13.29-25.73,25.97-52.61,28.56-81.45
		c2.6-28.84-6.12-69-29.57-85.99"/>
</g>
<g id="Layer_3">
	<path class="st1" d="M937.71,265.43c-144.7,0-262,125.81-262,281s117.3,281,262,281s262-125.81,262-281
		S1082.4,265.43,937.71,265.43z M1062.81,572.38c-0.14,0.98-1.09,6.86-0.16,1.11c-0.24,1.46-0.38,2.93-0.57,4.4
		c-0.61,4.65-1.22,9.3-1.89,13.95c-2.13,14.75-5.07,28.97-11.07,42.67c-10.89,24.89-33.44,43.43-56.55,56.62
		c-13.83,7.89-29.04,13.44-45.17,12.98c-15.77-0.45-32.28-4.76-46.36-11.8c-11.55-5.78-21.65-14.51-30.92-23.41
		c-8.85-8.5-18.06-16.66-26.83-25.23c-21.82-21.32-33.19-51.57-31.37-81.98c1.55-25.79,7.73-50.96,19.16-74.19
		c11.12-22.59,28.27-43.6,51.23-54.63c4.25-2.04,8.82-2.6,12.94-1.48c3.03-1.43,6.11-2.77,9.21-4.05
		c6.63-2.73,13.91-4.27,20.88-5.96c8.1-1.97,16.35-3.16,24.7-3.11c32.12,0.2,62.7,18.1,82.63,42.67
		c19.81,24.42,33.01,54.29,32.73,86.07C1065.31,555.54,1064,563.94,1062.81,572.38z"/>
</g>
<g id="Layer_3_copy">
	<path class="st2" d="M937.71,265.43c-144.7,0-262,125.81-262,281s117.3,281,262,281s262-125.81,262-281
		S1082.4,265.43,937.71,265.43z M1073.32,599.22c-9.62,28.2-22.12,58.66-44.53,79.26c-21.78,20.01-52.9,30.82-82.29,32.11
		c-7.93,0.35-16.25-0.53-23.89-2.62c-7.66-2.1-14.32-6.09-21.17-9.93c-13.53-7.56-26.91-14.7-38.8-24.79
		c-12.06-10.23-21.43-23.84-29.96-37.03c-8.78-13.58-17.21-27.03-21.51-42.81c-4.61-16.92-4.95-34-2.31-51.23
		c1.13-7.39,3.01-14.64,5.34-21.74c1.22-3.71,2.57-7.38,4-11.01c0.77-1.95,1.57-3.9,2.38-5.83c-0.01,0.03-0.01,0.03,0.01-0.02
		c0,0.01-0.01,0.02-0.01,0.02c0.16-0.37,2.76-6.55,1.66-3.95s1.51-3.58,1.66-3.94c0,0.01-0.01,0.02-0.01,0.02
		c0.02-0.05,0.02-0.05,0.01-0.02c5.28-12.42,11.55-24.11,19.48-35.06c4.38-6.05,8.96-12.06,14.33-17.27
		c5.6-5.43,12.3-9.95,18.89-14.12c4.69-2.97,10.46-2.87,15.24-0.63c13.81-6.11,28.99-12.2,43.92-14.36
		c31.78-4.6,63.88,7.93,87.69,28.69c19.94,17.39,32.9,41,42.71,65.19c4.49,11.08,8.58,22.46,11.44,34.08
		C1082.47,561.97,1079.78,580.28,1073.32,599.22z"/>
</g>
<g id="Layer_4">
	<path class="st4" d="M1139.52,508.22c4.41-15.78,0.71-35.35-13.42-43.65c-22.06-12.97-55.22,7.65-74.06-9.67
		c-12.08-11.11-9.56-30.36-7.36-46.62c2.2-16.26,0.84-36.79-14.11-43.57c-16.51-7.48-34.52,8.49-52.64,8.08
		c-12.28-0.28-23.03-8.07-32.2-16.24c-9.17-8.17-18.08-17.33-29.65-21.44c-11.57-4.12-20.86-8.14-26.04,3l-0.15,0.97
		c-12.22,28.93-38.23,51.67-68.53,59.91c-15.71,4.27-32.34,4.84-47.74,10.11s-30.29,17.14-32.07,33.32
		c-2.89,26.31,28.46,44.67,32.29,70.86c2.67,18.27-8.56,35.25-17.46,51.42c-8.9,16.18-15.58,37.15-4.89,52.2
		c9.15,12.88,27.53,15.96,37.85,27.92c9.65,11.18,10.12,27.29,10.92,42.03c0.8,14.74,3.37,31.22,15.23,40.02
		c18.9,14.02,46.68-0.93,68.96,6.65c12.87,4.38,21.94,15.58,31.31,25.42c9.37,9.84,21.26,19.35,34.83,18.54
		c13.89-0.83,24.67-12.13,33.07-23.23c8.4-11.1,16.82-23.47,29.89-28.25c15.06-5.51,31.75,0.7,47.75-0.35
		c20.09-1.32,38.43-14.77,47.58-32.7c9.14-17.93,9.54-39.65,3.05-58.71c-4.33-12.71-11.61-24.68-12.65-38.07
		c-1.27-16.33,6.96-31.84,16.12-45.42S1135.1,524,1139.52,508.22z M1056.53,585.75c-0.73,4.57-1.38,9.05-2.8,13.63
		c-1.93,6.19-3.31,12.45-5.8,18.46c-3.85,9.31-9.04,17.17-15.85,23.96c-0.17,0.45-0.35,0.9-0.56,1.33
		c-1.31,2.63-4.04,5.52-7.17,7.47c-9.13,9.12-19.24,17.14-30.29,23.78c-10.14,6.09-20.42,12.06-32.39,11.73
		c-9.49,5.13-22.35,5.4-32.47,4.26c-11.27-1.27-24.92-5.58-35.56-12.06c-10.74-6.53-20.68-14.55-29.72-23.27
		c-8.35-8.06-18.56-16.51-23.41-27.28c-0.78-1.74-1.12-3.59-0.96-5.35c-0.61-1.29-1.13-2.62-1.52-4.02
		c-1.24-1.73-2.32-3.57-3.19-5.42c-1.48-3.16-2.8-6.76-3.64-10.17c-0.49-1.99-1.07-3.99-1.53-5.98c-0.01-0.05-0.02-0.09-0.03-0.14
		c-0.49-1.62-0.81-3.2-0.84-4.69c-0.05-0.55-0.04-1.1-0.01-1.64c-0.33-1.78-0.58-3.56-0.73-5.32c-1.38-4.96-2.27-10.04-2.5-15.4
		c-0.01-0.14,0.01-0.27,0.01-0.41c-1.91-5.65-1.8-11-1.48-17.39c0.37-7.25,0.91-14.37,2.46-21.48c0.46-2.13,0.89-4.27,1.48-6.36
		c0.13-1.07,0.27-2.13,0.44-3.19c1.22-7.44,4.42-14.37,7.73-21.18c0.93-2.56,2.08-5.04,3.45-7.38c1-2.65,2.15-4.97,3.88-7.04
		c1.74-3.71,4.12-7.16,6.33-10.55c3.63-5.56,7.92-10.74,12.47-15.58c4.33-4.61,9.37-8.69,14.34-12.59c4.77-3.75,9.85-7.2,15.69-8.84
		c3.29-4.2,8.61-6.38,13.99-7.79c7.38-1.93,12.94-4.95,20.89-3.62c0.23,0.04,0.46,0.09,0.69,0.15c1.77-0.79,3.5-1.36,5.21-1.58
		c0.79-0.33,1.61-0.61,2.49-0.8c2.97-0.62,6-0.53,9.01-0.44c3.76,0.11,7.55,0.41,11.13,1.64c0.34,0.12,0.67,0.26,1,0.4
		c4.18,0.35,7.69,1.03,11.52,2.58c2.06,0.26,4.11,0.56,6.1,1.23c3.37,1.13,6.02,2.82,8.97,4.57c-1.36-0.82,0.6,0.22,1.62,0.55
		c1.14,0.37,2.29,0.74,3.42,1.15c3.79,1.37,6.57,3.14,9.66,5.68c0.05,0.04,0.08,0.07,0.11,0.1c0.14,0.09,0.33,0.21,0.61,0.4
		c1.66,1.1,3.22,2.36,4.76,3.63c0.32,0.26,0.53,0.45,0.67,0.58c0.19,0.1,0.41,0.22,0.71,0.39c1.28,0.72,2.42,1.54,3.6,2.43
		c0.11,0.08,0.21,0.17,0.32,0.25c0.22,0.14,0.45,0.28,0.67,0.45c3.14,2.32,6.52,4.5,9.32,7.26c2.8,2.76,5.36,6.66,7.73,9.81
		c1.66,2.2,2.89,3.7,3.94,6.25c2.73,2.43,5.36,5.87,7.18,8.72c2.71,4.25,4.35,9.96,6.34,14.18c2.38,5.04,5.29,9.75,7.23,15.02
		c1.02,2.76,2.16,5.4,2.92,8.1c0.26,0.54,0.47,1.13,0.62,1.8c1.52,6.55,3.16,13.06,3.36,19.82c0.15,5.08,0.55,9.92,1.17,14.95
		C1060.53,565.25,1059.34,576.12,1056.53,585.75z"/>
</g>
<g id="Layer_4_copy">
	<path class="st2" d="M1139.52,508.22c4.41-15.78,0.71-35.35-13.42-43.65c-22.06-12.97-55.22,7.65-74.06-9.67
		c-12.08-11.11-9.56-30.36-7.36-46.62c2.2-16.26,0.84-36.79-14.11-43.57c-16.51-7.48-34.52,8.49-52.64,8.08
		c-12.28-0.28-23.03-8.07-32.2-16.24c-9.17-8.17-18.08-17.33-29.65-21.44c-11.57-4.12-20.86-8.14-26.04,3l-0.15,0.97
		c-12.22,28.93-38.23,51.67-68.53,59.91c-15.71,4.27-32.34,4.84-47.74,10.11s-30.29,17.14-32.07,33.32
		c-2.89,26.31,28.46,44.67,32.29,70.86c2.67,18.27-8.56,35.25-17.46,51.42c-8.9,16.18-15.58,37.15-4.89,52.2
		c9.15,12.88,27.53,15.96,37.85,27.92c9.65,11.18,10.12,27.29,10.92,42.03c0.8,14.74,3.37,31.22,15.23,40.02
		c18.9,14.02,46.68-0.93,68.96,6.65c12.87,4.38,21.94,15.58,31.31,25.42c9.37,9.84,21.26,19.35,34.83,18.54
		c13.89-0.83,24.67-12.13,33.07-23.23c8.4-11.1,16.82-23.47,29.89-28.25c15.06-5.51,31.75,0.7,47.75-0.35
		c20.09-1.32,38.43-14.77,47.58-32.7c9.14-17.93,9.54-39.65,3.05-58.71c-4.33-12.71-11.61-24.68-12.65-38.07
		c-1.27-16.33,6.96-31.84,16.12-45.42S1135.1,524,1139.52,508.22z M1065.3,586.62c-0.78,2.68-1.71,5.31-2.73,7.91
		c-0.86,2.26-1.82,4.47-2.88,6.63c-0.26,0.9-0.44,1.9-0.65,2.58c-2.2,7.09-4.72,14.16-8.35,20.67
		c-5.47,9.79-13.53,18.12-21.37,26.03c-7.02,7.09-13.55,14.62-21.18,21.08c-9.77,8.26-20.13,15.12-32.08,19.78
		c-10.82,4.22-22.78,5.47-34.32,4.79c-11.98-0.7-23.79-3.01-35.37-6.04c-12.9-3.38-23.29-9.49-33.55-17.84
		c-15.74-12.81-30.76-28.15-39.73-46.5c-0.14-0.2-0.28-0.39-0.42-0.59c0.03-0.01,0.07-0.03,0.1-0.04c-0.69-1.45-1.36-2.91-1.98-4.4
		c-1.19-2.86-1.23-5.9-0.48-8.79c-3.09-5.58-5.83-11.46-7.08-17.66c-0.84-4.18-1.65-9.18-1.12-13.51c-0.01-0.03-0.02-0.05-0.03-0.08
		c-0.15-0.37-0.36-0.86-0.61-1.48c-0.52-1.23-1.09-2.49-1.53-3.77c-3.09-9.02-3.5-19.18-2.44-28.58
		c2.02-17.89,5.23-36.16,12.54-52.68c3.26-7.37,6.62-15.23,11.05-21.98c4.44-6.76,10.14-12.2,15.52-18.15
		c5.39-5.95,11.37-10.69,18.6-14.19c3.26-1.58,6.37-3.2,9.35-5.27c0.92-0.64,1.81-1.3,2.71-1.96c-0.64,0.43,3.61-2.85,3.91-3.08
		c7.22-5.58,14.56-8.52,23.45-10.45c7.46-1.62,14.4-5.39,22.19-5.45c7.8-0.06,14.14,3.68,21.51,5.51
		c8.58,2.13,16.46,3.86,24.63,7.44c7.56,3.31,14.29,7.53,21.02,12.27c1.66,1.17,3.27,2.4,4.88,3.64c0.66,0.51,1.13,0.87,1.45,1.12
		c1.09,0.65,2.21,1.26,3.34,1.85c4.29,2.22,8.46,4.47,11.76,8.13c2.94,3.25,5.82,7.34,7.35,11.52c0.04,0.1,0.17,0.54,0.27,0.9
		c0.15,0.28,0.31,0.57,0.44,0.73c1.9,2.41,3.82,4.8,5.68,7.24c5.44,7.13,9.48,14.46,11.87,23.19c0.23,0.85,0.34,1.32,0.3,1.33
		c0.5,1.21,1.08,2.4,1.52,3.64c0.01,0.01,0.02,0.02,0.03,0.03c0.44,0.53,0.76,1.28,1.14,1.86c1.73,2.61,3.95,4.9,5.43,7.67
		c4.36,8.14,5.04,16.81,5.55,25.84c0.09,1.66-0.09,3.24-0.49,4.74c0.28,1.25,0.45,2.52,0.49,3.79c0.07,2.13,0.16,4.25,0.35,6.37
		c0.06,0.65,0.26,2.34,0.29,2.69c0.48,3.56,1,7.12,1.41,10.69C1067.86,572.91,1067.31,579.71,1065.3,586.62z"/>
</g>
<g id="Layer_5">
	<path class="st5" d="M1084.08,538.86c-1.95-12.34-5.35-24.51-10.66-35.85c-12.61-26.92-35.32-47.97-59.28-65.96
		c-16.39-12.31-33.94-23.68-53.65-29.65c-19.71-5.98-39.15-9.1-57.34,0.45l-0.04,0.03c-25.24,22.21-63.27,29.89-81.93,57.68
		c-10.95,16.32-13.08,36.75-13.83,56.29c-1.07,27.73,0.02,55.78,6.91,82.69c6.89,26.91,19.87,52.76,40.1,72.11
		c28.22,26.99,69.74,39.38,108.69,33.79s74.66-28.61,96.69-60.69C1081.74,617.67,1090.12,577.12,1084.08,538.86z M1059.58,570.44
		c-1.06,9.2-2.33,18.5-5.91,27.06c-0.47,5.52-1.95,11.01-3.9,15.92c-2.09,5.24-4.92,9.38-7.86,14c-2.54,3.98-4.88,8.03-7.66,11.86
		c-2.96,4.06-6.17,7.75-9.55,11.45c-2.95,3.23-5.35,6.69-8.79,9.46c-4.03,3.24-8.74,5.34-12.85,8.46
		c-4.13,3.14-8.32,5.61-13.07,7.74c-2.95,1.32-5.87,2.39-8.83,3.34c-6.35,4.29-13.76,7.42-21.19,9.07c-8.81,1.96-18.94,1-27.88,0.24
		c-6.78-0.57-13.63-1.72-20.06-4.02c-0.09,0-0.19,0.02-0.28,0.02c-6.07,0.15-11.49-2.98-16.71-5.71c-3.91-2.04-7.67-4.44-11.19-7.14
		c-4.25-1.98-7.92-4.03-11.46-7.29c-1.45-1.33-2.52-2.6-3.73-4.14c-4.63-2.96-8.46-6.85-11.19-11.4c-2.83-3.7-3.14-4.07-0.9-1.09
		c-0.29,0.17-3.11-2.86-3.27-3.04c-3.3-3.55-5.44-7.49-7.55-11.75c-3.93-7.94-8.64-15.9-11.11-24.44c-0.05-0.16-0.08-0.29-0.12-0.42
		c-0.08-0.17-0.18-0.38-0.3-0.63c-0.68-1.48-1.4-3.01-2.04-4.56c-1.61-3.15-3.12-6.36-4.47-9.66c-1.75-4.27-2.35-8.63-2.82-13.23
		c-0.16-1.56-0.3-3.17-0.31-4.75c0-0.4,0-0.7,0.01-0.93c-0.01-0.07-0.02-0.12-0.03-0.19c-0.94-5.41-1.64-11.12-1.21-16.58
		c-0.44-4.76,0.04-9.62,0.91-14.69c0.46-2.7,0.99-5.48,1.58-8.21c0.13-2.58,0.41-5.12,1.01-7.61c0.24-3.03,0.6-6.03,1.05-9
		c-0.13-2.08,0.04-4.17,0.59-6.18c0.43-1.6,0.97-3.19,1.55-4.78c0.34-1.32,0.85-2.58,1.5-3.74c2.5-5.76,5.79-11.3,9.38-16.22
		c1.44-1.98,2.93-3.93,4.45-5.86c0.62-1.37,1.33-2.69,2.19-3.92c1.07-1.54,2.25-3.3,3.58-4.61c0.24-0.24,0.37-0.35,0.42-0.37
		c0.15-0.19,0.31-0.4,0.49-0.64c0.24-0.3,2.99-3.01,3.34-3.85c-0.03,0.09-0.08,0.2-0.16,0.33c1.2-1.5,2.32-2.97,3.65-4.25
		c0.24-0.46,0.51-0.9,0.82-1.31c1.38-1.85,2.73-3.55,4.4-5.09c1.1-0.88,2.22-1.74,3.34-2.59c-0.86,0.66-0.87,0.65-0.03-0.04
		c3.03-2.86,6.41-5.44,9.72-7.94c2.88-2.18,5.82-4.16,8.86-6.11c1.68-1.08,3.3-1.81,5.15-2.59c1.12-0.55,2.27-0.99,3.47-1.31
		c-1.3,0.64-1.38,0.7-0.24,0.16c6.64-2.69,12.73-6.42,19.78-8.14c5.64-1.37,11.35-2.15,17.11-2.48c1.22-0.74,2.62-1.16,4.09-1.07
		c0.06,0,0.11,0.01,0.17,0.01c4.23-1.75,9.34-1.72,13.83-0.86c0.24,0.05,0.47,0.11,0.71,0.17c0.16-0.02,0.32-0.05,0.48-0.07
		c3.41-0.37,6.89,0.72,10.25,1.21c1.34,0.2,2.52,0.83,3.5,1.72c3.12,0.34,6.31,0.99,8.74,2.62c0.78,0.22,1.54,0.45,2.28,0.68
		c7.84,2.44,14.3,6.31,21.24,10.39c3.01,1.77,6.24,3,9.15,5c1.99,1.37,4.16,3.1,5.97,4.8c0.07,0.07,3.16,3.08,2.02,2.13
		c3.85,3.36,7.46,5.95,10.29,10.46c0.84,1.35,1.52,2.79,2.05,4.29c8.11,8.47,15.09,16.71,19.85,27.59
		c3.97,9.08,9.1,19.66,8.64,29.84c1.34,6.76,2.04,13.59,3.43,20.33c1.33,6.45,1.53,12.89,0.82,19.35
		C1059.48,567,1059.79,568.61,1059.58,570.44z"/>
</g>
<g id="Layer_10">
	<path class="st2" d="M889.06,418.26c-33.59,13.83-52.93,22.86-70.93,54.41c-11.09,19.43-13.8,42.54-13.66,64.92
		c0.23,37.95,8.34,76.5,28.15,108.86c19.81,32.36,52.17,57.96,89.47,64.91c18.3,3.41,37.34,2.33,55.33-2.44
		c55.97-14.82,98.84-66.31,108.67-123.37c3.48-20.22,3.2-41.33-2.9-60.92c-9.47-30.39-31.97-54.84-55.46-76.32
		c-19.42-17.76-40.67-34.65-65.85-42.3c-19.16-5.82-34.02-10.04-51.62-1.25C904.74,407.53,896.55,415.26,889.06,418.26"/>
</g>
<g id="Layer_9">
	<ellipse class="st2" cx="941.38" cy="555.85" rx="118.2" ry="132.39"/>
</g>
</svg>
