<?xml version="1.0" encoding="utf-8"?>
<!-- Generator: Adobe Illustrator 26.2.1, SVG Export Plug-In . SVG Version: 6.00 Build 0)  -->
<svg version="1.1" xmlns="http://www.w3.org/2000/svg" xmlns:xlink="http://www.w3.org/1999/xlink" x="0px" y="0px"
	 viewBox="0 0 1417.32 1417.32" style="enable-background:new 0 0 1417.32 1417.32;" xml:space="preserve">
<style type="text/css">
	.st0{fill:#BABABA;stroke:#000000;stroke-width:7;stroke-miterlimit:10;}
	.st1{fill:#FFD4D5;stroke:#000000;stroke-width:7;stroke-miterlimit:10;}
	.st2{fill:none;stroke:#000000;stroke-width:7;stroke-miterlimit:10;}
	.st3{stroke:#000000;stroke-width:7;stroke-miterlimit:10;}
	.st4{fill:#FFFFFF;}
	.st5{fill:#FFD4D5;stroke:#000000;stroke-width:4;stroke-miterlimit:10;}
	.st6{fill:none;stroke:#000000;stroke-width:4;stroke-miterlimit:10;}
</style>
<g id="Layer_3">
	<path class="st0" d="M718.76,889.8c71.87-50.66,110.51-140.92,109.02-228.84c-0.57-33.79-6.48-67.25-8.69-100.97
		c-2.2-33.72-0.47-68.64,13.4-99.45c13.87-30.81,41.82-56.9,76.4-54.82c9.14-4.54,20.73,3.9,22.24,13.99
		c1.51,10.09-4.36,19.98-11.83,26.93c-7.48,6.95-16.6,11.87-24.46,18.38c-26.53,21.98-35.3,59.33-33.99,93.75
		c1.3,34.43,10.93,68.02,14.14,102.32c6.03,64.43-11.56,130.8-48.7,183.79s-93.53,92.17-159.84,108.79
		c21.36-18.66,39.74-40.72,54.23-65.1"/>
</g>
<g id="Layer_2">
	<ellipse class="st0" cx="545.97" cy="761.45" rx="202" ry="240"/>
</g>
<g id="Layer_4">
	<ellipse class="st0" cx="461.1" cy="1003.27" rx="57" ry="30"/>
	<ellipse class="st0" cx="632.75" cy="1006.7" rx="58" ry="35"/>
</g>
<g id="Layer_5">
	<path class="st0" d="M429.47,703.93c18.99,95.36,37.98,190.71,56.97,286.07c2.15,10.8,4.49,22.03,11.26,30.72
		c6.77,8.69,19.38,13.89,29.12,8.75c13.35-7.05,12.41-26.17,9.57-41c-18.11-94.39-36.22-188.78-54.33-283.16"/>
	<path class="st0" d="M610.42,708c-2.26,89.1-4.52,178.19-6.78,267.29c-0.31,12.39-0.82,25.46-7.42,35.96s-21.56,16.79-31.81,9.82
		c-9.33-6.35-10.23-19.51-10.21-30.79c0.23-98.53,0.46-197.05,0.69-295.58"/>
</g>
<g id="Layer_6">
	<polygon class="st0" points="605.63,253.7 494.66,356.83 636.58,402 	"/>
	<polygon class="st0" points="326.87,271.56 315.22,403.46 429.47,355.26 	"/>
</g>
<g id="Layer_7">
	<path class="st1" d="M614.92,305.42c-17.22,16.88-31.53,36.72-40.23,58.72c21.19,6.85,41.24,17.25,59.14,32.6
		c-6.23-31.17-12.46-62.34-18.69-93.5"/>
	<path class="st1" d="M322.63,328.67c1.13,24.79-0.36,49.69-4.09,78.2c2.27-9.79,11.42-16.31,20.37-20.87
		c8.95-4.56,18.79-8.41,25.25-14.82c-14.14-15.78-28.28-31.56-42.42-47.34"/>
</g>
<g id="Layer_1">
	<ellipse class="st0" cx="482.59" cy="470.91" rx="194" ry="123"/>
</g>
<g id="Layer_8">
	<path class="st2" d="M733.15,266.3"/>
	<path class="st2" d="M339.49,496.42c-18.7-1.36-37.75,9-46.77,25.43"/>
	<path class="st2" d="M338.27,518.41c-14.28,6.76-25.75,19.26-31.27,34.07"/>
	<path class="st2" d="M354.83,541.93c-11.21,10.62-18.25,25.53-19.32,40.93"/>
	<path class="st2" d="M506.43,484.8c31.59-11.68,69.74-2.83,92.96,21.56"/>
	<path class="st2" d="M503.11,501.39c34.33-3.2,69.84,10.7,92.88,36.36"/>
	<path class="st2" d="M493.03,518.06c12.58,6.08,25.3,12.25,36.09,21.13c10.79,8.88,19.65,20.87,22,34.64"/>
</g>
<g id="Layer_9">
	<ellipse class="st3" cx="370.05" cy="432.46" rx="5.89" ry="28"/>
	<ellipse class="st3" cx="458.08" cy="436.87" rx="10" ry="30"/>
	<ellipse class="st4" cx="367.14" cy="427.42" rx="2.91" ry="9.44"/>
	<ellipse class="st4" cx="453.25" cy="432.02" rx="4.83" ry="12.63"/>
</g>
<g id="Layer_10">
	<polygon class="st5" points="404.1,509.08 392.57,483.52 415.63,483.52 	"/>
</g>
<g id="Layer_11">
	<path class="st6" d="M475.02,492.24"/>
	<path class="st6" d="M404.87,511.38c-4.29,9.37-3.24,20.97,2.66,29.41c5.9,8.44,16.44,13.42,26.71,12.61
		c10.27-0.81,19.9-7.37,24.4-16.64"/>
	<path class="st6" d="M404.01,538.89c0.38,5.09-3.29,9.97-8.06,11.8c-4.77,1.83-10.29,0.92-14.74-1.59s-7.92-6.46-10.7-10.74"/>
</g>
</svg>
