<?xml version="1.0" encoding="utf-8"?>
<!-- Generator: Adobe Illustrator 26.2.1, SVG Export Plug-In . SVG Version: 6.00 Build 0)  -->
<svg version="1.1" xmlns="http://www.w3.org/2000/svg" xmlns:xlink="http://www.w3.org/1999/xlink" x="0px" y="0px"
	 viewBox="0 0 1417.32 1417.32" style="enable-background:new 0 0 1417.32 1417.32;" xml:space="preserve">
<style type="text/css">
	.st0{fill:#29ABE2;stroke:#000000;stroke-width:6;stroke-miterlimit:10;}
	.st1{fill:#0071BC;stroke:#000000;stroke-width:6;stroke-miterlimit:10;}
</style>
<g id="Layer_1">
	<circle class="st0" cx="767.05" cy="639.89" r="406.5"/>
</g>
<g id="Layer_3">
	<path class="st0" d="M370.95,561.59c19.01-44.1,26.95-92.92,22.9-140.77c-1.72-20.34-5.47-41.5,1.54-60.68
		c11.5-31.43,46.84-45.97,78.21-56.84c29.4-13.47,30.8-60.32,60.42-73.3c11.69-5.12,25.14-3.51,37.69-1.21
		c44.23,8.12,90.43,23.54,132.86,8.62"/>
</g>
<g id="Layer_4">
	<path class="st1" d="M969.23,998.6C782.36,790.99,679.05,510.2,683.85,233.77c129.42-32.64,274.06,3.01,373.49,92.05
		s150.75,228.9,132.51,361.12c-18.23,132.22-105.49,252.97-225.3,311.78"/>
	<path class="st1" d="M792.52,557.93c14.4-114.35,64.9-223.88,142.5-309.09"/>
	<path class="st1" d="M846.94,603.99c71.73-91.54,173.92-158.78,286.37-188.44"/>
	<path class="st1" d="M849.19,660.53c110.19-38.19,235.26-31.39,340.66,18.53"/>
</g>
<g id="Layer_2">
	<circle class="st1" cx="767.05" cy="639.89" r="85"/>
</g>
</svg>
