<?xml version="1.0" encoding="utf-8"?>
<!-- Generator: Adobe Illustrator 26.2.1, SVG Export Plug-In . SVG Version: 6.00 Build 0)  -->
<svg version="1.1" xmlns="http://www.w3.org/2000/svg" xmlns:xlink="http://www.w3.org/1999/xlink" x="0px" y="0px"
	 viewBox="0 0 1417.32 1417.32" style="enable-background:new 0 0 1417.32 1417.32;" xml:space="preserve">
<style type="text/css">
	.st0{fill:#29ABE2;stroke:#000000;stroke-width:5;stroke-miterlimit:10;}
	.st1{fill:url(#SVGID_1_);stroke:#000000;stroke-width:5;stroke-miterlimit:10;}
	.st2{fill:#0071BC;stroke:#000000;stroke-width:5;stroke-miterlimit:10;}
</style>
<g id="Layer_3">
	<path class="st0" d="M796.29,261.43c-1.27,186.95-39.14,374.35-114.78,545.14c-56.56,51.09-130.35,86.65-207.64,102.18
		c0.54,11.54,1.07,23.08,1.58,34.62c1.58,35.78,2.83,71.57,4.22,107.35c0.04,0.92,0.08,1.85,0.11,2.77
		c84.37-1.9,168.64-8.3,252.33-19.2c63.52-8.27,127.83-19.49,184.96-48.47c57.12-28.98,106.85-78.36,126.2-141.32
		c64.25-159.12,112.9-324.54,145.04-493.11C1055.37,332.76,924.04,302.62,796.29,261.43z"/>
	<path class="st0" d="M1189.28,346.29c-0.32,1.7-0.66,3.41-0.98,5.11c0.45,0.06,0.91,0.13,1.36,0.19L1189.28,346.29z"/>
</g>
<g id="Layer_2">
	<linearGradient id="SVGID_1_" gradientUnits="userSpaceOnUse" x1="434.8629" y1="978.9283" x2="520.8629" y2="978.9283">
		<stop  offset="0" style="stop-color:#0071BC"/>
		<stop  offset="1" style="stop-color:#000000"/>
	</linearGradient>
	<ellipse class="st1" cx="477.86" cy="978.93" rx="43" ry="71"/>
</g>
<g id="Layer_1">
	
		<ellipse transform="matrix(0.1996 -0.9799 0.9799 0.1996 492.8777 1216.4371)" class="st0" cx="991.01" cy="306.53" rx="59" ry="204"/>
</g>
<g id="Layer_4">
	<path class="st2" d="M1171.03,288.89c-5.45,17.82-10.9,35.64-16.36,53.46c-3.23,3.22-7.84,6.18-12.83,8.26
		c-37.13,13.22-79.22,8.79-119.4,2.5c-41.25-6.45-82.47-14.77-121.29-30.13c-24.01-9.5-47.9-22.43-62.62-43.65
		c5.3-20.19,11.25-39.58,17.6-60.02c100.92,37.02,206.7,60.78,313.76,70.49"/>
</g>
<g id="Layer_1_copy">
	
		<ellipse transform="matrix(0.1996 -0.9799 0.9799 0.1996 566.5773 1196.5441)" class="st2" cx="1015.69" cy="251.47" rx="41.77" ry="162.25"/>
</g>
</svg>
