<?xml version="1.0" encoding="utf-8"?>
<!-- Generator: Adobe Illustrator 26.2.1, SVG Export Plug-In . SVG Version: 6.00 Build 0)  -->
<svg version="1.1" xmlns="http://www.w3.org/2000/svg" xmlns:xlink="http://www.w3.org/1999/xlink" x="0px" y="0px"
	 viewBox="0 0 1417.32 1417.32" style="enable-background:new 0 0 1417.32 1417.32;" xml:space="preserve">
<style type="text/css">
	.st0{fill:#004573;stroke:#000000;stroke-width:6;stroke-miterlimit:10;}
	.st1{fill:#0071BC;stroke:#000000;stroke-width:6;stroke-miterlimit:10;}
	.st2{fill:#F1AEFC;stroke:#000000;stroke-width:6;stroke-miterlimit:10;}
	.st3{fill:#FFE3D1;stroke:#000000;stroke-width:6;stroke-miterlimit:10;}
	.st4{fill:#29ABE2;stroke:#000000;stroke-width:6;stroke-miterlimit:10;}
	.st5{stroke:#000000;stroke-miterlimit:10;}
	.st6{stroke:#000000;stroke-width:6;stroke-miterlimit:10;}
	.st7{fill:#FFFFFF;stroke:#000000;stroke-miterlimit:10;}
	.st8{fill:none;stroke:#000000;stroke-width:4;stroke-miterlimit:10;stroke-dasharray:0,0,0,0,0,0;}
	.st9{fill:#8F4F1B;stroke:#000000;stroke-width:4;stroke-miterlimit:10;stroke-dasharray:0,0,0,0,0,0;}
	.st10{fill:#F1AEFC;stroke:#000000;stroke-width:4;stroke-miterlimit:10;stroke-dasharray:0,0,0,0,0,0;}
</style>
<g id="Layer_8_copy">
	<path class="st0" d="M624.8,1115.64c1.37,0,2.74,0,4.11,0c0.02,0,0.03,0,0.05,0c0.78,0,1.57,0,2.35,0c1.26,0,2.2,0.49,2.83,1.22
		c37.38-3.47,74.92-4.19,112.35-1.7c7.96-9.08,12.61-19.99,12.61-31.74c0-31.58-33.58-57.19-75-57.19c-41.42,0-75,25.6-75,57.19
		c0,11.95,4.81,23.04,13.03,32.21C623.02,1115.64,623.91,1115.64,624.8,1115.64z"/>
</g>
<g id="Layer_8">
	<path class="st0" d="M733.81,1154.75c1.37,0,2.74,0,4.11,0c0.02,0,0.03,0,0.05,0c0.78,0,1.57,0,2.35,0c1.26,0,2.2,0.49,2.83,1.22
		c37.38-3.47,74.92-4.19,112.35-1.7c7.96-9.08,12.61-19.99,12.61-31.74c0-31.58-33.58-57.19-75-57.19c-41.42,0-75,25.6-75,57.19
		c0,11.95,4.81,23.04,13.03,32.21C732.03,1154.75,732.92,1154.75,733.81,1154.75z"/>
</g>
<g id="Layer_3">
	<ellipse class="st1" cx="659.48" cy="918.35" rx="64" ry="147"/>
</g>
<g id="Layer_4">
	<ellipse class="st1" cx="759.1" cy="945.79" rx="66" ry="152.54"/>
</g>
<g id="Layer_2">
	<ellipse class="st2" cx="708.66" cy="719.66" rx="216" ry="161"/>
</g>
<g id="Layer_5">
	
		<ellipse transform="matrix(0.9522 -0.3054 0.3054 0.9522 -192.2283 259.5376)" class="st2" cx="733.33" cy="744.1" rx="37" ry="107.09"/>
</g>
<g id="Layer_6">
	<ellipse class="st3" cx="771.33" cy="852.32" rx="38" ry="47"/>
</g>
<g id="Layer_1">
	<ellipse class="st3" cx="708.66" cy="409.5" rx="277" ry="232"/>
</g>
<g id="Layer_14">
	<path class="st3" d="M923.91,648.26"/>
	<path class="st3" d="M672.72,414.94c-17.32,1.48-33.24,13.83-38.98,30.24c-5.74,16.41-0.98,35.99,11.64,47.94s32.43,15.63,48.5,9"
		/>
	<path class="st3" d="M678.6,441.06c-3.85,7.44-7.81,15.4-7.09,23.75c0.72,8.35,8.24,16.67,16.44,14.96"/>
</g>
<g id="Layer_9">
	<ellipse class="st4" cx="866.33" cy="371.47" rx="21" ry="47.5"/>
	<path class="st5" d="M885.33,343.95c-0.33-0.46-0.73-1.01-1.09-1.49c-0.01-0.02-0.03-0.05-0.05-0.08c-0.26-0.99-0.78-1.94-1.5-2.69
		c0.04-0.44,0.03-0.9-0.02-1.36c-0.25-3.11-1.68-5.96-3.78-8.23c-0.41-0.66-1.52-2.29-1.94-2.79c-2.38-2.62-6.01-3.61-9.43-3.92
		c-2.64-0.01-5.25,0.83-7.62,1.94c-5.55,3.92-8.46,10.47-10.38,16.8c-0.96,3.09-1.94,6.2-2.16,9.45c-0.03,0.2-0.06,0.4-0.1,0.59
		c-0.62,0.58-1.13,1.25-1.35,2.14c-0.52,1.53-0.55,3.22-0.04,4.58c-0.01,0.04-0.01,0.08-0.01,0.12c-0.02,0.09-0.08,0.36-0.19,0.84
		c-0.63,2.25-1.8,4.33-2.28,6.63c-0.49,2.47-0.67,4.99-0.96,7.5c-0.54,1.81-0.61,3.93,0.76,5.3c0.35,0.35,0.72,0.6,1.1,0.78
		c-0.24,1.61-0.39,3.26,0.11,4.84c0.31,0.98,0.95,1.8,1.47,2.67c0.63,1.1,1.25,2.21,1.77,3.36c0.11,2.76,1.17,5.41,2.38,7.86
		c-0.09-0.66-0.19-1.33-0.27-1.99c0.09,0.17,0.19,0.34,0.28,0.51c-0.15-0.66-0.3-1.32-0.42-1.98c-0.02-0.26-0.04-0.52-0.05-0.78
		c-0.21-2.51,0.72-4.76,1.16-7.3c1.65-5.35,2.55-8.17,4.87-12.23c1.35-3.04,3.1-5.84,5.02-8.55c1.04-1.76,3.4-4.49,3.76-4.79
		c3.17-2.16,5.39-4.21,7.74-5.93c1.82-1.26,3.22-2.12,5.21-2.47c0.32-0.08,1.08-0.06,1.87-0.02c0.87,0.48,1.83,0.74,2.78,0.74
		c0.37,0.47,0.71,1.12,0.94,1.63c0.96,2.03,1.81,4.36,2.5,6.95c0.04-2.72-0.25-5.43-0.83-8.09c-0.08-0.34-0.18-0.67-0.29-1.01
		c0.91-0.44,1.73-1.16,2.36-2.19C888.18,348.76,887.27,345.88,885.33,343.95z M848.4,381.15c-0.23,1.25-0.42,2.51-0.54,3.78
		c-0.07-0.24-0.13-0.44-0.15-0.54C847.75,382.77,847.99,382.02,848.4,381.15z"/>
	<ellipse class="st6" cx="872.5" cy="377.3" rx="11" ry="21.5"/>
	<path d="M886.63,360.92c-0.02-0.28-0.07-0.57-0.13-0.85c0,0,0,0,0.01,0c-0.01-0.05-0.03-0.09-0.04-0.14c0-0.02-0.01-0.03-0.01-0.05
		c-0.36-2.26-0.7-4.55-1.61-6.67c-0.34-1.33-1.42-2.31-2.71-2.71c-0.19-0.05-0.38-0.09-0.56-0.11c-0.25-0.22-0.49-0.44-0.77-0.64
		c-1.85-1.31-4.59-0.84-5.93,0.86c-0.78,0.53-1.33,1.38-1.29,2.43c-0.12,1.8,0.95,3.35,1.25,5.08c0.49,1.41,0.59,3.08,1.52,4.28
		c0.7,1.03,1.88,1.47,3.05,1.39c0.29,0.36,0.62,0.69,1.04,0.95c0.89,0.55,1.91,0.67,2.88,0.47c0.01,0.05,0.02,0.12,0.03,0.17
		c0.01-0.06,0.02-0.12,0.02-0.18c0.32-0.07,0.63-0.18,0.92-0.32C885.86,364.35,887.08,362.7,886.63,360.92z"/>
	<ellipse class="st7" cx="864.74" cy="348.99" rx="8" ry="17.5"/>
</g>
<g id="Layer_10">
	<path class="st8" d="M934.5,542.4c-12.18,6.58-29.35,0.44-40.78-4.86c-16.28-7.54-30.76-23.49-30.91-42.2
		c-0.43-0.15-0.86-0.36-1.25-0.66c-1.28,25.32,23.42,47.86,55.95,50.69c5.48,0.48,10.84,0.35,15.98-0.29
		c0.04-0.07,0.07-0.14,0.11-0.2c0.66-0.99,1.49-1.61,2.39-1.93c0.04-0.06,0.07-0.11,0.11-0.17
		C935.56,542.67,935.02,542.54,934.5,542.4z"/>
</g>
<g id="Layer_13">
	<path class="st9" d="M487.87,246.38c-57.8,0.29-115.22,22.79-157.83,61.84s-70.02,94.29-79.9,152.91
		c-18.69-79.88,14-169.4,73.05-224.79c-49.48,14.81-93.16,48.16-125.75,86.69c14.55-54.29,48.96-103.02,95.25-134.91
		s104.08-46.66,157.83-40.37c-14.15-30.22-47.81-50.12-88.75-46.02c52.46-29.74,126.44-12.51,152.59,40.19
		c26.24-27.31,65.7-41.28,100.11-31.02c-34.92,15.01-57.32,54.87-52.25,93.06c-28.14,7.6-54.05,23.24-74.12,45.22
		c-2.98-0.68-5.95-1.35-8.93-2.03"/>
</g>
<g id="Layer_12">
	
		<ellipse transform="matrix(0.8631 -0.5051 0.5051 0.8631 -43.5513 304.7324)" class="st10" cx="540.24" cy="232.69" rx="85.71" ry="36"/>
</g>
<g id="Layer_11">
	<path class="st9" d="M933.87,276.84C900.09,239,856.6,209.89,808.73,193.1c-77.38-19.93-163.92-20.39-238.01,13.87
		S438,314.24,434.7,395.79c-2.12,52.42,17.84,103.55,44.7,148.61c32.86-36.65,53.95-81.6,63.08-128.9
		c4.24,20.52-0.06,42.38-8.53,62.49c45.35-57.2,66.42-130.14,59.03-200.51c56.86,29.82,125.63,38.38,187.91,21.51
		c-44.03-10.2-88.2-34.73-122.26-69.33c83.78,38.37,179.31,55.55,273.91,43.33c-4.08,1.07-8.17,2.15-12.25,3.22"/>
</g>
</svg>
