<?xml version="1.0" encoding="utf-8"?>
<!-- Generator: Adobe Illustrator 26.2.1, SVG Export Plug-In . SVG Version: 6.00 Build 0)  -->
<svg version="1.1" xmlns="http://www.w3.org/2000/svg" xmlns:xlink="http://www.w3.org/1999/xlink" x="0px" y="0px"
	 viewBox="0 0 1417.32 1417.32" style="enable-background:new 0 0 1417.32 1417.32;" xml:space="preserve">
<style type="text/css">
	.st0{fill:#D4F4FF;}
	.st1{fill:none;stroke:#000000;stroke-miterlimit:10;}
	.st2{fill:#D4F4FF;stroke:#000000;stroke-miterlimit:10;}
	.st3{fill:#C44D35;stroke:#000000;stroke-miterlimit:10;}
	.st4{fill:#FFD2AB;stroke:#000000;stroke-miterlimit:10;}
	.st5{fill:url(#SVGID_1_);stroke:#000000;stroke-miterlimit:10;}
	.st6{fill:#FFBA85;stroke:#000000;stroke-miterlimit:10;}
</style>
<g id="Layer_10">
	<path class="st0" d="M404.25,823.25C508.5,715.65,622.2,617.2,743.61,529.42c150.11-108.52,314.05-202.59,436.37-341.69
		c58.32,72.82,104.87,155.04,137.32,242.51c4.81,12.96,9.32,27.35,4.52,40.31c-6.93,18.72-61.24,23.59-80.45,29.03
		c-133.11,37.67-217.61,123.55-312.68,224.05s-170.57,217.62-243.17,335.38c-22.29,36.15-52.08,76.94-94.55,76.23
		c-28.6-0.47-52.72-20.31-74.27-39.12c-45.38-39.59-92.07-80.9-117.15-135.66c-25.08-54.76-15.82-87.87,22.5-144.22"/>
</g>
<g id="Layer_10_copy">
	<path class="st1" d="M1296.72,487.07C1272,494,1246,497,1221,505c-34,12-66,27-98,47c-3,2-5,2-8,4c-96,63-165,143-237,224
		c-76,93-138,191-204,297c-10,15-20,27-33,39c-2,2-5,3-7,5c-28,23-65,17-92-4c-2-2-4-3-7-5c-6-5-11-10-17-15c-1-1-3-1-4-2
		c-29-26-55-49-80-79c-8-11-16-21-23-33s-13-24-18-37c-4-10-6-20-7-31c-1-9,0-18,1-27c5-27,20-50,35.06-71.75"/>
	<path class="st1" d="M404.25,823.25C463,764,520,707,587,653c1-1,2-3,3-4c58-47,109-89,172-132c6-4,9-8,15-12c18-11,32-22,49-34
		c9-5,16-11,25-16c6-4,10-8,16-12c114-77,217-149,305.36-246.72"/>
</g>
<g id="Layer_2">
	<path class="st2" d="M723.77,1024.24"/>
	<ellipse class="st2" cx="525.83" cy="964.25" rx="181" ry="199"/>
</g>
<g id="Layer_15">
	<path class="st3" d="M392.13,856.93c35.69-3.26,45.83-60.18,81.33-65.13c20.47-2.86,39.33,13.75,60,13.19
		c16.12-0.44,31.27-11.34,47.2-8.83c12.47,1.96,22.22,11.79,29.36,22.2c7.14,10.41,12.74,22.04,21.71,30.92
		c14.91,14.78,37.71,20.52,50.3,37.32c13.86,18.48,11.04,44.44,4.5,66.59c-6.53,22.15-16.24,44.34-14.1,67.33
		c1.32,14.19,6.92,29.56-0.21,41.9c-11.13,19.28-42.08,13.69-58.72,28.48c-13.87,12.33-14.47,36.06-30.2,45.91
		c-11.97,7.5-27.84,3.58-40.25-3.15c-12.42-6.73-23.67-16.1-37.32-19.74c-25.66-6.86-56.73,7.19-77.7-9.11
		c-19.33-15.03-16.27-45.72-30.4-65.71c-11.01-15.57-32.32-24.56-36.09-43.26c-3.96-19.63,13.97-36.53,18.91-55.93
		c3.01-11.81,1.07-24.23-0.21-36.35c-1.28-12.12-1.74-24.98,3.82-35.83s19.1-18.49,30.25-13.58"/>
</g>
<g id="Layer_4">
	<ellipse class="st4" cx="529.33" cy="961.25" rx="142.5" ry="145"/>
</g>
<g id="Layer_4_copy">
	<linearGradient id="SVGID_1_" gradientUnits="userSpaceOnUse" x1="446.8369" y1="1089.9457" x2="601.9795" y2="854.7409">
		<stop  offset="0" style="stop-color:#D4F4FF"/>
		<stop  offset="0.1498" style="stop-color:#D1F1FC"/>
		<stop  offset="0.2786" style="stop-color:#C8E7F1"/>
		<stop  offset="0.3997" style="stop-color:#BAD6DF"/>
		<stop  offset="0.5162" style="stop-color:#A5BEC6"/>
		<stop  offset="0.6293" style="stop-color:#8A9FA6"/>
		<stop  offset="0.7399" style="stop-color:#69797E"/>
		<stop  offset="0.8484" style="stop-color:#424C50"/>
		<stop  offset="0.9527" style="stop-color:#16191B"/>
		<stop  offset="1" style="stop-color:#000000"/>
	</linearGradient>
	<ellipse class="st5" cx="530.72" cy="962.78" rx="124" ry="130.5"/>
</g>
<g id="Layer_11">
	<path class="st6" d="M679.13,571.14c-12.85,15.33-6.29,38.8,1.21,57.52c30.34,75.68,65.8,149.19,106.05,219.81
		c4.18,7.33,8.73,14.96,15.94,19.1c7.21,4.14,17.87,3.2,21.93-4.2c3.79-6.91,0.39-15.49-3.02-22.6
		c-7.92-16.54-15.84-33.07-23.76-49.61c13.09-3.43,26.5,3.22,38.3,9.98c11.8,6.76,24.62,14.09,37.98,12.07
		c13.37-2.02,24.78-18.92,16.71-30.07c-4.63-6.4-13.12-7.97-20.73-9.51c-82.57-16.8-150.01-93.7-157.83-179.94
		c-0.82-9.06-1.12-18.48-5.08-26.62c-3.95-8.14-12.9-14.61-21.42-12.15c-13.43,3.88-13.66,23.19-11.02,37.28"/>
</g>
<g id="Layer_7">
	<path class="st6" d="M814.19,477.02c-5.98-5.29-14.25-5.98-20.71-1.71c-6.46,4.27-10.84,13.3-10.97,22.63
		c-0.12,8.6,3.05,16.65,6.29,24.18c31.96,74.18,79.11,137.44,135.41,181.7c4.11,3.23,8.41,6.43,13.18,7.29
		c12.02,2.17,22.21-10.58,30.27-22.24c-74.55-34.99-134.11-118.66-154.57-217.14"/>
</g>
<g id="Layer_7_copy">
	<path class="st6" d="M950.09,389.57c5.84-4.15,3.27-18.06-3.06-20.58s-13.01,3.34-16.64,10.83c-7.31,15.1-5.68,34.86-3.63,52.73
		c8.49,73.97,20.68,151.06,56.6,207.76c5.31,8.37,11.46,16.52,19.29,19.45c6.08,2.28,14.62-1.6,14.37-10.17
		c-0.12-4.03-2.22-7.37-4.17-10.41c-44.82-69.75-67.31-165.2-60.68-257.43"/>
</g>
<g id="Layer_9">
	<path class="st6" d="M1107.28,421.58c-16.21,38.08-17.51,82.72-3.54,121.6c2.36,6.57,5.17,13.1,5.79,20.1
		c0.63,7-1.4,14.76-6.93,18.8c-9.64,7.04-22.97-0.89-30.11-10.57c-15.58-21.11-18.47-49.81-15.5-76.34
		c2.97-26.54,11.12-52.17,15.39-78.52c4.27-26.35,4.3-54.75-7.99-78.11c-4.25-8.08-10.04-15.87-10.49-25.09
		c-0.45-9.22,8.36-19.41,16.37-15.51c6.91,11.36,6.96,25.8,11.51,38.4c4.55,12.6,18.15,24.22,29.55,17.8
		c11.68-6.58,9.69-24.25,7.2-37.81c-4.49-24.5-5.04-49.8-1.6-74.52c0.95-6.86,2.36-14,6.63-19.32c4.28-5.32,12.3-7.98,17.73-4.03
		c6.26,4.54,5.72,14.2,4.62,22.1c-6.85,49.22-9.02,99.64,0.03,148.39c9.06,48.75,29.97,95.93,64.31,130.22
		c-13.2,12.59-35.63,6.17-47.45-7.72c-11.82-13.89-16.29-32.72-22.3-50.22s-15.23-35.64-31.66-42.83
		c-2.41,4.06-4.81,8.12-7.22,12.18"/>
</g>
</svg>
