<?xml version="1.0" encoding="utf-8"?>
<!-- Generator: Adobe Illustrator 26.2.1, SVG Export Plug-In . SVG Version: 6.00 Build 0)  -->
<svg version="1.1" xmlns="http://www.w3.org/2000/svg" xmlns:xlink="http://www.w3.org/1999/xlink" x="0px" y="0px"
	 viewBox="0 0 1417.32 1417.32" style="enable-background:new 0 0 1417.32 1417.32;" xml:space="preserve">
<style type="text/css">
	.st0{fill:#FADCD4;stroke:#000000;stroke-width:5;stroke-miterlimit:10;}
	.st1{fill:#CEE1E8;}
	.st2{fill:none;stroke:#000000;stroke-width:5;stroke-miterlimit:10;}
	.st3{fill:#CEE1E8;stroke:#000000;stroke-width:5;stroke-miterlimit:10;}
	.st4{fill:#CF767C;}
	.st5{fill:#F8EBD9;}
</style>
<g id="Layer_14">
	<path class="st0" d="M546.61,463.85c12.19,5.92,26.79,6.68,39.53,2.04c12.74-4.63,23.44-14.59,30.11-25.67
		c-11.58,48.63-23.23,97.8-23.29,147.78s12.53,101.64,44.59,140c40.25,48.17,103.96,68.45,164.09,86.46
		c58.32,17.46,116.65,34.92,174.97,52.38c-13.89-5.11-29.64,0.01-42.02,8.12s-22.68,19.07-34.91,27.42
		c-18.77,12.82-41.18,18.95-62.98,25.39c-38.57,11.39-76.66,24.41-114.13,39.01c-18.83,7.33-40.33,18.64-42.45,38.73
		c-105.19-34.28-189.47-126.36-214.35-234.15c-24.88-107.8,10.53-227.5,90.05-304.41"/>
</g>
<g id="Layer_15">
	<path class="st0" d="M360.06,647.81c14.77,9.31,35.46,8.01,48.95-3.08c-5.33,24.72,1.79,50.28,9.78,74.27
		c19.77,59.38,45.25,116.85,75.97,171.37c18.12,32.16,38.91,64.19,69.4,84.99c27.45,18.73,63.21,29.06,79.56,58
		c-32.09-8.12-68.76,9.98-81.83,40.4c-63.24-31.51-117.61-80.58-155.42-140.27s-58.93-129.82-60.39-200.46
		c-0.6-29.32,2.55-60.02,18.42-84.68"/>
</g>
<g id="Layer_12">
	<path class="st1" d="M580.84,1062.1c-70.45-36.41-127.83-96.78-162.78-167.97s-47.65-152.74-38.38-231.5
		c1.32-11.24,2.63-24.06-4.9-32.51c-7.86-8.83-21.82-8.57-33.17-5.24c-24.39,7.16-44.62,24.96-59,45.92
		c-14.38,20.96-23.49,45.03-31.5,69.15c-21.56,64.89-36.28,133.48-29.02,201.47s38.92,135.64,95.02,174.74
		c10.55,7.35,21.85,13.64,33.77,18.45c13.01,5.25,26.74,8.71,40.69,10.26c55.8,6.21,110.35-18.13,158.88-46.37
		c7.79-4.54,15.67-9.31,21.49-16.2c5.82-6.88,16.28-16.75,8.75-20.29"/>
</g>
<g id="Layer_12_copy">
	<path class="st2" d="M502.78,1123.25c14.45-6.44,28.48-13.8,42.22-21.63c6.51-3.71,13.15-7.37,19.09-11.96
		c5.37-4.15,9.87-9.41,14.16-14.65c2.47-3.02,8.46-10.32,2.43-13.01"/>
	<path class="st2" d="M580.84,1062.1c-24.2-12.9-46.2-27.9-68.2-45.9c-20-17-36-35-53-55c-4-5-7-10-11-15c-59-84-81-180-69-278
		c2-17,4-42-17-44c-36-5-65,24-83.83,52.39"/>
</g>
<g id="Layer_11">
	<path class="st3" d="M561.14,482.89c4.45-8.89,4.03-7.09,5.44-12.02c2.12-7.42,1.43-16.8-5.43-20.33
		c-4.14-2.13-9.09-1.6-13.68-0.83c-62.66,10.55-115.71,58.06-141.17,116.27s-25.41,125.49-8.52,186.74s49.64,117.09,87.6,168.05
		c28.88,38.78,61.54,75.69,102.33,101.64c17.42,11.08,36.82,20.23,57.45,21.15c20.62,0.92,42.62-7.82,53.07-25.62
		c4.56-7.77,6.51-18.17,1.26-25.49c-4.44-6.2-12.53-8.33-19.88-10.36c-86.14-23.81-157.33-95.51-180.52-181.82
		c-15.25-56.75-10.7-116.99-0.52-174.86c9.01-51.25,60.18-140.64,62.78-143.72"/>
</g>
<g id="Layer_10">
	<path class="st3" d="M574.43,788.24c-1.37-8.12-14.65-8.12-19.14-1.22c-4.49,6.91-2.66,16.02-0.2,23.89
		c17.17,55.04,56.5,100.71,100.84,137.56c22.54,18.73,47.41,36,75.96,42.63c32.37,7.51,66.76,0.5,97.02-13.22
		c30.27-13.72,57.12-33.82,83.71-53.76c5.77-4.33,11.7-8.83,15.34-15.07c3.63-6.24,4.41-14.72-0.09-20.37
		c-6.05-7.6-17.66-6.59-27.26-5.09c-59.88,9.38-117.82,13.42-176.47-1.89c-58.65-15.3-111.14-45.77-150.31-95.46"/>
	<path class="st3" d="M1323.73,1110.31c0.69,3.04-1.26,6.44-4.24,7.37"/>
</g>
<g id="Layer_9">
	<path class="st3" d="M862.37,284.05c-73.87-13.73-151.01,21.33-201.75,76.73s-78.26,128.48-93.8,201.99
		c-9.07,42.92-14.09,89.33,4.07,129.26c14.44,31.76,41.92,55.6,70.32,75.87c79.48,56.74,172.98,93.68,269.78,106.6
		c32.68,4.36,67.28,5.75,97.2-8.08c51.86-23.97,73.88-84.61,112.04-127.13c-65.16-30.02-130.32-60.03-195.49-90.05
		c-27.31-12.58-55.54-25.85-74.9-48.85c-30.58-36.33-32.33-89.33-21.79-135.63c10.54-46.3,31.57-89.73,41.81-136.09
		c3.44-15.58,4.06-35.23-9.38-43.82"/>
</g>
<g id="Layer_3">
	<path class="st1" d="M942.12,271.48c-140.83,0-255,123.12-255,275s114.17,275,255,275s255-123.12,255-275
		S1082.95,271.48,942.12,271.48z M969.8,555.16c-5.13,1.13-16.7,4.64-16.61,11.19c0.1,6.78,7.52,11.09,7.22,17.97
		c-0.18,4.15-4.92,6.02-7.98,3.3c-3.9-3.46-7.07-7.47-10.66-11.21c-3.86-4.02-8.13-3.71-12.68-6.01c-0.47-0.24-0.9-0.6-1.26-1.03
		c-0.28,0.24-0.56,0.48-0.83,0.73c-1.75,1.62-3.79,1.59-5.36,0.7c-2.31,1.36-4.75,2.48-7.23,3.09c-4.01,1-7.51-3.35-5.39-7.01
		c0.98-1.7,2.61-2.38,4.19-3.42c2.01-1.32,3.61-3.16,5.65-4.41c1.23-0.76,2.57-1.3,3.93-1.76c1.04-3.25-0.36-6.2-2.8-8.6
		c-3.25-3.21-9.53-3.87-9.72-9.42c-0.11-3.01,3.2-5.68,6.13-4.67c1.5,0.52,3.22,1.59,5.03,2.77c0.18,0.06,0.35,0.13,0.48,0.19
		c0.86,0.46,1.69,1.05,2.48,1.69c3.46,2.12,7.03,3.77,9.91,2.11c5.48-3.15,5.83-11.84,10.66-15.58c3.81-2.96,8.91-0.28,8.02,4.67
		c-0.76,4.2-4.41,13.4,0.01,16.74c2.01,1.52,4.54,1.38,7.07,0.79c1.86-0.66,3.74-1.19,5.56-1.6c0.58-0.15,1.14-0.27,1.66-0.35
		C973.13,545.24,975.9,553.82,969.8,555.16z"/>
</g>
<g id="Layer_3_copy">
	<ellipse class="st2" cx="942.12" cy="546.48" rx="255" ry="275"/>
</g>
<g id="Layer_4">
	<path class="st4" d="M1061.63,559.45c-0.22-23.34,35.76-35.92,33.09-59.11c-1.48-12.89-14.56-20.88-26.62-25.67
		c-12.05-4.79-25.69-9.33-31.96-20.68c-7.5-13.61-1.92-33.22-13.25-43.85c-10.4-9.76-26.93-4.8-41.12-3.34
		c-23.49,2.42-41.9-12.15-60.53-26.91l0.04,0.16c-11.94-8.54-28.97-5.07-41.37,2.79s-22.03,19.39-33.84,28.1
		c-13.48,9.93-29.49,15.96-43.08,25.73c-13.59,9.77-25.14,25.31-22.97,41.91c2.36,18.09,20.31,32.98,17.47,51
		c-2.41,15.29-19.27,25.84-19.89,41.31c-0.74,18.52,21.66,30.04,25.74,48.13c3.8,16.85-9.11,36.09-0.11,50.84
		c4.64,7.6,13.8,11.14,22.54,12.86c8.74,1.72,17.89,2.19,25.98,5.92c20.76,9.57,30.98,38.66,53.79,40.26
		c16.86,1.18,30.18-13.91,46.3-18.97c21.26-6.68,44.75,4.78,66.38-0.59c20.38-5.06,34.15-23.56,45.75-41.06
		c7.2-10.85,14.32-21.96,18.3-34.35c3.98-12.39,4.54-26.4-1.21-38.07C1074.9,583.31,1061.76,573.4,1061.63,559.45z M969.05,555.36
		c-2.83,1.16-5.82,2.17-8.89,2.78c-0.44,0.21-0.89,0.41-1.33,0.61c-2.34,1.03-5.34,2.33-6.5,4.86c-1.52,3.33,1.02,8.9,3.62,13.04
		c1.15,1.58,2.27,3.17,3.39,4.7c3.05,4.17-3.57,8.91-6.99,5.39c-1.84-1.89-3.77-4.21-5.47-6.78c-3.78-3.7-8.55-6.83-12.98-8.32
		c-3.4-1.15-7.54-1.51-10.96-0.84c-1.14,0.22-2.24,0.57-3.32,0.97c-1.88,0.99-3.79,1.83-5.7,2.38c-5.57,1.61-7.74-5.69-3.67-8.7
		c3.03-2.25,6.36-3.84,9.85-4.8c2.78-1.93,5.03-4.27,5.04-6.63c0.01-3.13-2.01-5.07-4.54-6.4c-2.86-1.5-5.14-3.31-7.76-5.17
		c-4.65-3.36-0.64-10.65,4.57-7.81c1.76,0.96,3.7,1.75,5.6,2.61c1.47,0.4,2.93,0.8,3.98,1.4c1.16,0.67,3.15,2.93,4.53,2.9
		c0.96-0.02,2.89-1.88,3.65-2.36c0.37-0.24,0.75-0.4,1.13-0.51c0.98-2.77,2.58-5.26,4.07-7.81c1.54-2.62,2.87-5.24,5.52-6.9
		c4-2.51,7.78,1.63,7.21,5.55c-0.64,4.45-7.1,12.97-2.37,16.37c2.17,1.56,5.16,1.63,7.7,1.36c0.38-0.04,0.76-0.07,1.14-0.1
		c3.24-0.9,6.53-1.21,9.49-0.79C974.22,547.07,972.69,553.86,969.05,555.36z"/>
</g>
<g id="Layer_4_copy">
	<path class="st2" d="M921.29,380.04c-11.94-8.54-28.97-5.07-41.37,2.79c-12.4,7.86-22.03,19.39-33.84,28.1
		c-13.48,9.93-29.49,15.96-43.08,25.73c-13.59,9.77-25.14,25.31-22.97,41.91c2.36,18.09,20.31,32.98,17.47,51
		c-2.41,15.29-19.27,25.84-19.89,41.31c-0.74,18.52,21.66,30.04,25.74,48.13c3.8,16.85-9.11,36.09-0.11,50.84
		c4.64,7.6,13.8,11.14,22.54,12.86c8.74,1.72,17.89,2.19,25.98,5.92c20.76,9.57,30.98,38.66,53.79,40.26
		c16.86,1.18,30.18-13.91,46.3-18.97c21.26-6.68,44.75,4.78,66.38-0.59c20.38-5.06,34.15-23.56,45.75-41.06
		c7.2-10.85,14.32-21.96,18.3-34.35c3.98-12.39,4.54-26.4-1.21-38.07c-6.16-12.52-19.3-22.43-19.44-36.39
		c-0.22-23.34,35.76-35.92,33.09-59.11c-1.48-12.89-14.56-20.88-26.62-25.67c-12.05-4.79-25.69-9.33-31.96-20.68
		c-7.5-13.61-1.92-33.22-13.25-43.85c-10.4-9.76-26.93-4.8-41.12-3.34c-23.49,2.42-41.9-12.15-60.52-26.91"/>
</g>
<g id="Layer_5">
	<path class="st5" d="M1024.26,563.85c-2.03-4.64-7.48-6.87-12.53-7.14s-10.09,0.94-15.15,1c-5.07,0.07-10.62-1.33-13.53-5.48
		c-2.72-3.87-2.44-9.03-2.05-13.75c0.64-7.75,1.29-15.49,1.93-23.24c0.86-10.34,1.38-21.83-5.2-29.85
		c-6.86-8.36-20.87-9.48-28.98-2.32c-5.31,4.69-9.1,12.62-16.18,12.85c-5.84,0.18-10.09-5.14-14.04-9.44
		c-6.91-7.52-16.41-13.43-26.62-13.16s-20.45,8.44-20.4,18.65c0.03,6.81,4.25,12.77,7.76,18.6c3.51,5.84,6.52,12.95,4.01,19.28
		c-1.79,4.5-6.04,7.56-10.48,9.49c-4.44,1.92-9.22,2.95-13.67,4.84c-3.38,1.43-6.96,4.02-6.92,7.69c0.05,3.95,4.16,6.41,7.68,8.2
		c3.53,1.78,7.53,4.62,7.08,8.55l0.34-1.08v0.68c0.58,8.76-6.1,15.97-11.81,22.33s-11.2,15.18-7.56,22.91
		c3.61,7.64,14.06,9.11,22.28,7.14c8.46-2.02,16.11-6.44,24.07-9.95s16.78-6.16,25.29-4.37c7.9,1.66,14.54,6.96,20.09,12.83
		s10.33,12.46,16.35,17.84c3.13,2.8,6.7,5.31,10.8,6.24c4.1,0.93,8.81,0.03,11.6-3.11c3.39-3.82,3.11-9.56,2.38-14.61
		c-0.88-6.08-2.13-12.17-1.87-18.3s2.21-12.5,6.76-16.62c4.34-3.93,10.36-5.32,16.13-6.35c5.77-1.03,11.78-1.94,16.64-5.21
		C1023.31,575.68,1026.61,569.22,1024.26,563.85z M970.75,555.02c-2.95,2.4-6.91,4-10.76,4.4c-0.36,1.03-1.09,1.97-2.32,2.65
		c-4.55,2.51-4.49,4.99-2.47,9.38c1.69,3.66,3.27,7.21,4.52,11.05c1.09,3.34-3.11,6.66-6.06,4.66
		c-6.21-4.19-10.08-12.33-17.41-14.94c-6.69-2.38-14.45-0.26-21.05,1.69c-0.59,0.21-1.17,0.4-1.76,0.52
		c-5.02,1.07-8.92-6.55-3.7-8.77c0.38-0.16,0.77-0.32,1.15-0.47c0,0,0-0.01,0-0.01c0.02,0,0.05-0.01,0.07-0.01
		c1.6-0.65,3.23-1.25,4.88-1.77c2.06-1.02,4.08-2.28,5.44-3.25c2.11-1.51,3.08-4,4.65-5.93c-1.49-1.42-3.03-2.77-4.28-4.43
		c-1.13-1.5-1.82-1.94-3.26-3.07c-1.33-1.04-2.47-2.3-3.92-3.22c-0.05,0.01-1.13-0.51-1.13-0.51c-0.5-0.3-1.14-0.71-1.5-1.17
		c-1.64-2.11-1.79-4.48,0-6.56c0.04-0.04,0.08-0.09,0.11-0.13c1.07-1.24,3.17-1.73,4.71-1.24c1.69,0.54,2.66,1.57,4.01,2.58
		c1.23,0.92,2.33,1.11,3.77,1.52c2.6,0.73,4.7,2.21,6.64,3.94c0.79-0.94,1.84-1.61,2.98-1.81c3.27-5.26,6.46-11.07,10.75-15.21
		c4.18-4.03,10.54,1.09,7.88,6.08c-2.7,5.07-4.87,10.79-3.34,16.21c1.25-0.01,2.59,0.06,4,0.07c2.79,0.03,5.42-0.23,8.09-0.99
		c3.01-0.86,5.52-1.45,8.26,0.58C972.11,548.62,973.61,552.7,970.75,555.02z"/>
</g>
<g id="Layer_5_copy">
	<path class="st2" d="M866.97,568.61c0.44-3.93-3.56-6.76-7.08-8.55c-3.53-1.78-7.64-4.25-7.68-8.2c-0.04-3.66,3.54-6.26,6.92-7.69
		c4.46-1.88,9.24-2.91,13.67-4.84c4.44-1.92,8.69-4.99,10.48-9.49c2.51-6.33-0.5-13.44-4.01-19.28s-7.73-11.79-7.76-18.6
		c-0.05-10.21,10.2-18.38,20.4-18.65c10.2-0.27,19.71,5.64,26.62,13.16c3.95,4.3,8.21,9.63,14.04,9.44
		c7.08-0.22,10.87-8.16,16.18-12.85c8.11-7.16,22.11-6.04,28.98,2.32c6.58,8.02,6.06,19.52,5.2,29.85
		c-0.64,7.75-1.29,15.49-1.93,23.24c-0.39,4.72-0.67,9.87,2.05,13.75c2.91,4.14,8.47,5.54,13.53,5.48c5.07-0.07,10.09-1.28,15.15-1
		c5.06,0.27,10.51,2.5,12.53,7.15c2.35,5.37-0.95,11.83-5.81,15.1c-4.86,3.27-10.87,4.18-16.64,5.21
		c-5.77,1.03-11.79,2.42-16.13,6.35c-4.55,4.13-6.51,10.48-6.76,16.62s1,12.22,1.87,18.3c0.73,5.05,1.01,10.8-2.38,14.61
		c-2.79,3.14-7.5,4.05-11.6,3.11c-4.1-0.93-7.66-3.44-10.8-6.24c-6.02-5.38-10.8-11.97-16.35-17.84s-12.19-11.17-20.09-12.83
		c-8.51-1.79-17.33,0.86-25.29,4.37s-15.61,7.93-24.07,9.95c-8.22,1.96-18.67,0.5-22.28-7.14c-3.64-7.73,1.85-16.55,7.56-22.91
		s12.4-13.56,11.81-22.33c0-0.23,0-0.45,0-0.68"/>
</g>
<g id="Layer_6">
	<path class="st2" d="M910.23,536.78c-0.65,2.49,0.97,5.06,3.01,6.62c2.04,1.56,4.52,2.45,6.66,3.87c2.14,1.42,4.05,3.67,3.91,6.24
		c-0.19,3.4-3.64,5.51-6.53,7.31c-2.77,1.73-5.39,3.71-7.8,5.92c-1.33,1.22-2.71,2.81-2.43,4.6c0.2,1.3,1.3,2.34,2.53,2.78
		s2.6,0.39,3.9,0.18c5.63-0.88,10.87-4.34,16.55-3.88c4.85,0.39,9,3.59,12.47,7s6.69,7.25,10.99,9.53c1.87,0.99,4.55,1.5,5.83-0.19
		c1.19-1.57,0.25-3.81-0.69-5.54c-1.68-3.07-3.32-6.15-4.92-9.26c-1.21-2.34-2.41-5.12-1.28-7.5c0.82-1.72,2.64-2.7,4.34-3.55
		c3.9-1.97,7.8-3.94,11.7-5.91c1.32-0.66,2.67-1.36,3.64-2.47c0.97-1.11,1.48-2.76,0.85-4.09c-0.6-1.28-2.07-1.94-3.47-2.04
		s-2.79,0.28-4.18,0.55c-3.3,0.64-6.71,0.69-10.03,0.15c-1.78-0.29-3.65-0.81-4.86-2.15c-1.48-1.64-1.62-4.13-1.07-6.27
		s1.69-4.07,2.53-6.12c0.72-1.77,1.23-3.69,0.92-5.57s-1.57-3.7-3.42-4.2c-2.73-0.74-5.31,1.51-7.09,3.7
		c-2.11,2.6-3.96,5.4-5.53,8.36c-1.27,2.39-2.77,5.21-5.45,5.58c-1.43,0.19-2.84-0.4-4.17-0.99c-3.38-1.49-6.76-2.98-10.14-4.47
		c-1.56-0.69-3.27-1.39-4.94-0.98c-1.66,0.41-2.95,2.51-1.93,3.88"/>
</g>
</svg>
