<?xml version="1.0" encoding="utf-8"?>
<!-- Generator: Adobe Illustrator 26.2.1, SVG Export Plug-In . SVG Version: 6.00 Build 0)  -->
<svg version="1.1" xmlns="http://www.w3.org/2000/svg" xmlns:xlink="http://www.w3.org/1999/xlink" x="0px" y="0px"
	 viewBox="0 0 1417.32 1417.32" style="enable-background:new 0 0 1417.32 1417.32;" xml:space="preserve">
<style type="text/css">
	.st0{fill:#C2C2C2;}
	.st1{fill:#FFFFFF;stroke:#000000;stroke-miterlimit:10;}
	.st2{fill:#C2C2C2;stroke:#707070;stroke-width:5;stroke-miterlimit:10;}
</style>
<g id="Layer_2">
	<path class="st0" d="M958.28,588.31c-27.43-9.63-55-18.87-82.57-28.11c-18.78-6.29-37.56-12.59-56.34-18.88
		c-11.91-3.99-23.86-7.99-36.16-10.57c-24.88-5.21-50.59-4.48-75.98-3.17c-74.08,3.82-151.65,13.74-211.84,57.11
		c-10.14,7.3-19.72,15.55-27.27,25.5c-8.34,10.97-14.4,24.17-25.63,32.14c-12.9,9.16-31.6,10.67-40.35,23.85
		c-3.74,5.63-4.94,12.52-6.06,19.19c-4.51,26.9-9.01,53.8-13.52,80.7c-1.16,6.94-2.33,13.93-2.03,20.96
		c0.92,21.5,15.25,40.03,30.88,54.82c15.63,14.79,33.46,27.8,45.09,45.9c10.33,16.07,15.13,35.25,25.84,51.07
		c13.43,19.84,36.13,33.1,60.01,35.07c11.59,0.95,23.33-0.61,34.85,0.95c11.52,1.56,23.53,7.21,28.16,17.88
		c3.42,7.88,2.49,17.67,8,24.25c6.01,7.18,16.81,7.31,26.16,6.85c6.38-0.31,12.75-0.63,19.13-0.94c8.79-0.43,17.59-0.87,26.37-1.51
		c83.85-6.15,165.45-31.53,241.9-66.51c15.9-7.28,32.34-15.14,49.82-14.88c6-21.66,12.01-43.32,18.01-64.98
		c2.99-10.79,6.01-21.75,5.99-32.95c-0.02-9.74-2.33-19.31-4.1-28.89c-4.6-24.89-5.6-50.44-2.94-75.61
		c3.09-29.3,10.87-60.11-0.51-87.28c-7.97-19.01-24.54-33.72-30.96-53.31c-1.3-3.96-2.27-8.27-5.23-11.2
		C954.06,582.84,948.23,582.37,958.28,588.31z"/>
	<path class="st0" d="M1054.44,1090.11"/>
	<path class="st0" d="M761.27,1001.37c-1.47-2.96-3.13-6.12-6.1-7.56c-1.61-0.78-3.45-0.96-5.24-1.02
		c-11.67-0.36-23.42,4.37-31.59,12.72c-3.27,3.35-6.07,7.45-6.62,12.1c-0.22,1.85-0.04,3.83,0.97,5.4c1.77,2.74,5.45,3.42,8.71,3.5
		c4.95,0.12,9.88-0.55,14.75-1.4c4.9-0.85,9.83-1.91,14.31-4.07c4.48-2.16,8.53-5.53,10.66-10.03c1.35-2.86,1.86-6.23,0.8-9.2
		C760.84,998.83,757.97,996.42,761.27,1001.37z"/>
	<path class="st0" d="M677.24,1009.45c-3.19-4.21-8.98-5.98-14.19-5.11c-5.21,0.87-9.83,4.09-13.22,8.14
		c-2.56,3.05-4.53,6.69-5.1,10.63c-0.23,1.6-0.22,3.28,0.37,4.8c0.66,1.71,2.01,3.08,3.48,4.18c4.97,3.76,11.44,4.99,17.67,5.04
		c5.45,0.04,11.44-1.03,14.9-5.24c3.29-4.01,3.34-9.69,3.23-14.87c-0.04-1.75-0.11-3.6-1.08-5.05c-1.47-2.17-4.39-2.67-6.99-2.98
		C673.88,1008.69,671.49,1008.41,677.24,1009.45z"/>
	<path class="st0" d="M620.13,970.31c-5.51,0.19-11.15,0.86-16.02,3.43c-4.87,2.57-8.87,7.36-9.18,12.86
		c-0.3,5.33,2.78,10.24,6.05,14.46c1.77,2.28,3.83,4.62,6.64,5.28c2.28,0.54,4.68-0.14,6.8-1.14c9.22-4.34,14.69-14.95,14.06-25.12
		c-0.19-3.11-0.92-6.27-2.68-8.84S621.13,966.76,620.13,970.31z"/>
	<path class="st0" d="M439.13,846.02c-3.79-3.38-9.11-4.95-14.13-4.18c-1.27,0.19-2.54,0.54-3.58,1.29
		c-1.93,1.39-2.74,3.96-2.53,6.33c0.2,2.37,1.27,4.58,2.46,6.64c1.51,2.61,3.44,5.25,6.31,6.2c1.65,0.55,3.45,0.47,5.18,0.22
		c2.83-0.4,5.87-1.44,7.3-3.92c1.39-2.42,0.8-5.55-0.55-7.99S436.2,846.17,439.13,846.02z"/>
	<path class="st0" d="M438.1,647.35c-4-2.61-8.44-5.34-13.19-4.79c-2.35,0.27-4.54,1.34-6.5,2.66c-2.34,1.58-4.51,3.64-5.45,6.31
		s-0.36,6.01,1.93,7.67c1.72,1.25,4,1.36,6.12,1.2c4.62-0.36,9.16-1.82,13.12-4.23c1.9-1.15,3.75-2.63,4.54-4.7
		c0.79-2.07,0.12-4.84-1.93-5.71c-0.15-0.06-0.35-0.1-0.45,0.03C436.21,645.92,436.52,646.07,438.1,647.35z"/>
	<path class="st0" d="M540.98,560.22c-2.42-1.29-4.98-2.61-7.72-2.56c-2.65,0.05-5.08,1.39-7.4,2.69c-3.82,2.15-8.03,4.82-8.87,9.12
		c-0.43,2.23,0.17,4.58,1.37,6.5c0.73,1.17,1.73,2.24,3.03,2.71c0.78,0.28,1.63,0.33,2.47,0.34c3.15,0.06,6.38-0.28,9.2-1.68
		c3.54-1.75,6.11-4.95,8.55-8.05c1.11-1.41,2.25-2.89,2.58-4.65c0.34-1.8-0.27-3.75-1.58-5.03S539.35,557.76,540.98,560.22z"/>
	<path class="st0" d="M977.89,879.6c-0.71,5.68-1.07,12.36,3.23,16.15c4.75,4.19,12.68,1.97,16.86-2.79s5.72-11.2,7.61-17.24
		c3.71-11.84,9.33-23.43,9.36-35.83c0-0.95-0.05-1.96-0.62-2.72c-0.95-1.28-2.85-1.24-4.43-1c-18.01,2.81-33.22,18.48-35.49,36.56
		C973.56,879.5,974.71,887.12,977.89,879.6z"/>
	<path class="st0" d="M1008.48,685.38c-3.25-2.02-7.01-4.13-10.69-3.09c-2.97,0.84-5.06,3.6-6.09,6.51
		c-1.03,2.91-1.22,6.04-1.74,9.08c-0.73,4.35-2.13,8.77-1.21,13.08c0.89,4.19,3.85,7.61,6.85,10.67c1.38,1.41,2.82,2.8,4.55,3.75
		c3.69,2.01,8.15,1.73,12.34,1.39c2.78-0.22,5.66-0.48,8.09-1.83c3.39-1.88,5.46-5.92,4.99-9.78"/>
	<path class="st0" d="M923.61,567.17c-4.5-4.47-11.26-6.11-17.58-5.5c-3.8,0.37-7.94,1.81-9.64,5.23c-1.92,3.87,0.28,8.81,3.88,11.2
		c3.59,2.39,8.15,2.77,12.47,2.63c5.27-0.17,10.8-1.14,14.86-4.51c0.45-0.37,0.88-0.79,1.1-1.32c0.2-0.49,0.2-1.05,0.13-1.57
		C928.34,569.52,924.1,566.67,923.61,567.17z"/>
</g>
<g id="Layer_1">
	<path class="st1" d="M1118.63,1354.27"/>
	<g>
		<g>
			<g>
				<g>
					<g>
						<g>
							<path class="st2" d="M958.83,696.85c19.21,3.52,38.67,7.12,56.34,15.46c17.67,8.33,33.63,22.08,40.37,40.41
								c7.8,21.22,1.89,45.92-11.75,63.95s-34.09,29.95-55.53,37.12"/>
							<g>
								<g>
									<g>
										<g>
											<g>
												<g>
													<path class="st2" d="M683.39,556.29c4.67-18.86,9.97-38.84,24.19-52.07c10.2-9.49,23.87-14.34,37.49-17.27
														c44.04-9.47,92.78-0.05,127.29,28.91s52.38,77.98,40.29,121.38"/>
													<path class="st2" d="M508.9,569.79c-4.26-23.29,10.99-46.22,30.01-60.33c22.09-16.38,55.54-23.08,82.88-20.12
														s53.45,17.27,69.91,39.3"/>
												</g>
											</g>
										</g>
										<path class="st2" d="M905.7,560.32c38.57-5.88,77.6,17.41,98.42,50.4c20.82,32.99,25.87,73.79,23.22,112.72"/>
									</g>
								</g>
							</g>
							<path class="st2" d="M1016.3,841.26c12.14,11.31,17.99,28.98,14.99,45.3c-1.41,7.66-4.6,14.89-8.19,21.8
								c-5.36,10.3-11.68,20.09-18.85,29.22c-5.95,7.57-12.72,14.85-21.43,18.95c-8.71,4.1-19.75,4.41-27.44-1.38"/>
						</g>
					</g>
				</g>
				<g>
					<g>
						<g>
							<path class="st2" d="M744.57,1007.53c34.96,33.62,89.88,44.67,135.13,27.19c45.25-17.48,78.47-62.59,81.74-110.98"/>
							<g>
								<g>
									<g>
										<g>
											<path class="st2" d="M444.9,797.7c-19.06,30.92-23.64,70.15-13.18,104.93c10.46,34.78,35.56,64.71,67.53,81.96
												c37.24,20.1,86.92,21.51,119.42-5.59"/>
											<g>
												<g>
													<g>
														<path class="st2" d="M409.8,710.08"/>
														<path class="st2" d="M437.53,716.93c-7.05-32.62-22.05-67.3-8.38-97.75c5.88-13.1,16.64-23.58,28.87-31.11
															c30.91-19.02,69.29-19.75,105.58-19.91"/>
														<path class="st2" d="M422.5,639.99c-12.71,1.91-24.65,8.53-33.02,18.28c-11,12.83-15.4,30.05-17.33,46.84
															c-2.44,21.31-0.51,45.24,14.69,60.38"/>
													</g>
												</g>
											</g>
											<path class="st2" d="M374.74,748.66c-7.14,10.12-9.63,23.01-8.71,35.36s5.04,24.26,10.15,35.54
												c4.77,10.52,10.56,20.77,18.77,28.89c8.22,8.12,19.14,13.96,30.68,14.24"/>
										</g>
										<path class="st2" d="M759.67,1019.49c-4.33,15.38-17.98,27.37-33.53,31.08c-15.54,3.71-32.46-0.41-45.49-9.66
											c-8.95-6.36-16.48-15.63-17.97-26.51"/>
										<path class="st2" d="M595.65,991.31c0.19,13.61,6.28,27.03,16.4,36.13c8.35,7.51,18.97,11.96,29.59,15.62
											c5.99,2.07,12.22,3.96,18.55,3.6c6.33-0.36,12.86-3.39,15.8-9"/>
									</g>
								</g>
							</g>
						</g>
					</g>
				</g>
			</g>
		</g>
	</g>
	<path class="st2" d="M662.6,567.13c5.53-6.56,13.96-10.59,22.54-10.78c3.28-0.07,6.61,0.4,9.58,1.78c4.01,1.86,7.1,5.21,10.08,8.48
		c4.06,4.45,8.32,9.31,9.07,15.29"/>
	<path class="st2" d="M711.48,572.71c5.58-2.05,11.51-4.14,17.35-3.02c5.24,1,9.68,4.46,13.33,8.35
		c8.25,8.78,13.61,21.35,10.43,32.97"/>
	<path class="st2" d="M940.26,686.09c10.54,2.77,19.09,12,21.05,22.71c0.64,3.5,0.62,7.09,0.3,10.63
		c-1.07,11.52-5.38,22.47-9.96,33.09"/>
	<path class="st2" d="M915.13,932.77c14.81-0.84,29.15-8.04,38.68-19.41c3.45-4.12,6.32-8.82,7.83-13.98
		c2.97-10.17,0.46-21.04-2.06-31.33"/>
	<path class="st2" d="M701.78,960.87c5.52,4.49,11.17,9.06,17.85,11.52c12.29,4.53,26.54,1.06,37.18-6.58
		c10.64-7.64,18.11-18.96,23.78-30.77"/>
	<path class="st2" d="M458.79,770.62c-6.18,2.19-10.65,7.89-12.66,14.12c-2.01,6.24-1.84,12.97-0.98,19.47
		c2.09,15.86,8.39,31.46,19.53,42.94c11.14,11.48,27.42,18.37,43.3,16.38"/>
	<path class="st2" d="M468.57,781.76c-4.03-3.47-9.31-5.65-12.27-10.06c-1.24-1.84-1.99-3.97-2.57-6.11
		c-4.67-17.23,2.04-36.98,16.24-47.8c0.64-0.48,1.63-0.92,2.13-0.3"/>
	<path class="st2" d="M551.09,651.95c-1.87-8.45,1.47-17.84,8.26-23.21c6.79-5.37,16.7-6.45,24.49-2.67"/>
	<path class="st2" d="M824.51,683.3c9.07-1.19,18.62,4.21,22.27,12.6c3.4,7.82,1.81,16.99-1.57,24.82"/>
</g>
</svg>
