<?xml version="1.0" encoding="utf-8"?>
<!-- Generator: Adobe Illustrator 26.2.1, SVG Export Plug-In . SVG Version: 6.00 Build 0)  -->
<svg version="1.1" xmlns="http://www.w3.org/2000/svg" xmlns:xlink="http://www.w3.org/1999/xlink" x="0px" y="0px"
	 viewBox="0 0 1417.32 1417.32" style="enable-background:new 0 0 1417.32 1417.32;" xml:space="preserve">
<style type="text/css">
	.st0{fill:#D4F4FF;}
	.st1{fill:none;stroke:#000000;stroke-miterlimit:10;}
	.st2{fill:#D4F4FF;stroke:#000000;stroke-miterlimit:10;}
	.st3{fill:#C44D35;stroke:#000000;stroke-miterlimit:10;}
	.st4{fill:#FFD2AB;stroke:#000000;stroke-miterlimit:10;}
	.st5{fill:url(#SVGID_1_);stroke:#000000;stroke-miterlimit:10;}
	.st6{display:none;}
	.st7{display:inline;fill:#FFBA85;stroke:#000000;stroke-miterlimit:10;}
</style>
<g id="Layer_10">
	<path class="st0" d="M260.45,683.33c36.47-66.81,107.87-113.24,183.74-119.46c34.35-2.82,72.14,1.18,100.02-19.07
		c34.28-24.9,42.14-79.3,81.47-95.05c44.38-17.77,103.89,25.26,138.69-7.52c26.61-25.06,16.22-79.08,49.4-94.42
		c24.25-11.22,53.34,8.79,78.96,1.22c41.92-12.38,45.67-86.9,89.34-88.78c18.65-0.8,34.76,14.29,42.34,31.34s8.84,36.12,12.32,54.45
		c8.45,44.52,30.9,86.28,63.38,117.89c17.32,16.86,37.84,31.45,49.11,52.84c11.27,21.38,8.71,52.93-12.92,63.72
		c-31.21,15.56-70.19-23.25-101.34-7.57c-32.73,16.48-20.26,73.39-50.67,93.84c-33.32,22.41-80.03-21.17-116.69-4.77
		c-23.01,10.29-30.28,38.98-33.33,64.01c-3.05,25.02-6.36,53.34-26.53,68.46c-26.82,20.12-64.65,4.39-98.13,6.08
		c-41.71,2.1-76.76,32.32-102,65.59c-25.24,33.27-44.55,71.3-74.21,100.69c-29.66,29.4-74.5,49.12-113.4,33.95
		c-23.43-9.13-40.7-29.19-55.52-49.5C305,869.78,268.75,771.54,261.05,670.96"/>
</g>
<g id="Layer_10_copy">
	<path class="st1" d="M1133.51,581.72c-17.87,7-37.54-1.84-54.58-7.26c-16.79-5.34-36.28-9.52-50.98,3.12
		c-12.51,10.76-16.09,28.53-19.95,43.76c-3.92,15.48-8.12,33.09-21.22,43.57c-14.83,11.87-34.16,8.75-51.11,4.12
		c-17.89-4.88-36.57-12.75-55.48-10.49c-20.64,2.47-33.35,18.72-39.6,37.37c-6.77,20.2-6.42,41.76-11.58,62.31
		c-5.35,21.28-17.67,39.64-40.16,44.79c-22.66,5.18-46.25-1.7-69.02-2.54c-23.18-0.86-44.97,6.26-64.23,18.99
		c-19.4,12.81-35.59,30.04-49.45,48.56c-15.27,20.4-28.33,42.32-43.12,63.06c-14.15,19.84-30.02,38.85-50.23,52.77
		c-18.69,12.88-40.95,22.01-63.91,22.12c-23.8,0.12-44.62-10.76-61.32-27.18c-17.49-17.2-31.46-38.36-44.43-59.06
		c-13.41-21.41-25.33-43.76-35.66-66.81c-10.37-23.15-19.15-47.01-26.25-71.37c-7.07-24.26-12.47-49-16.12-74
		c-1.77-12.15-3.14-24.36-4.07-36.61"/>
	<path class="st1" d="M260.45,683.33c16.8-30.78,41.06-57.27,69.69-77.44c28.49-20.07,61.4-33.97,95.79-39.74
		c35.64-5.98,75.69,1.46,108.85-15.57c28.11-14.44,39.86-45.21,56.63-70.03c7.97-11.8,17.64-22.91,30.67-29.21
		c13.96-6.75,29.79-6.86,44.89-5.06c15.71,1.88,31.09,5.79,46.79,7.7c14.06,1.71,29.17,1.83,41.88-5.3
		c25.69-14.42,26.64-47.58,35.47-72.38c4.33-12.16,11.28-23.64,23.62-28.91c16.42-7,34.72-0.48,51.35,2.17
		c14.86,2.37,29.35,1.25,41.44-8.37c9.4-7.48,16.08-17.86,22.11-28.08c10.95-18.55,21.74-45.58,44.76-51.7
		c6.58-1.75,13.58-1.53,20.04,0.63"/>
</g>
<g id="Layer_2">
	<path class="st2" d="M549.77,908.24"/>
	<ellipse class="st2" cx="351.83" cy="848.25" rx="181" ry="199"/>
</g>
<g id="Layer_3">
	<path class="st3" d="M354.76,671.22c-13.11,4.9-7.53,43.5-22.21,42.26s-49.99-32.98-59.36-22.13c-7.24,8.38-1.99,44.61-8.14,53.75
		c-12.41,18.44-49.46-8.4-62.69,9.51c-12.54,16.98,21.93,45.24,20.1,65.94c-1.17,13.19-24.25,22.11-29.5,34.37
		c-5.24,12.26-10.63,22.55-4.5,34.43c7.62,14.78,42.22,9.95,51.14,24.05c11.09,17.52-15.22,57.07,1.82,69.52
		c14.69,10.73,45.53-16.75,63.02-10.97c12.39,4.09,11.86,33.68,20.87,42.76c9.01,9.08,21.11,17.61,34.04,15.52
		c20.2-3.26,28.01-46.37,47.5-52.4c16.05-4.97,42.85,3.47,58-3.61c13.77-6.43-5.14-53,1.92-65.97
		c9.59-17.61,45.42-14.09,53.65-44.05c0.38-1.39,0.89-2.73,0.74-4.16c-0.79-7.67-2.9-31.86-21.83-44.42
		c-16.46-10.93-29.69-18.96-31.06-37.66c-1.26-17.25,16.46-43.93,5.96-56.8c-12.58-15.41-61.13-2.02-61.13-2.02s-5.52,4-6.26,2.57
		c-12.11-23.51-27.24-57.77-34.5-51.87"/>
</g>
<g id="Layer_4">
	<ellipse class="st4" cx="351.83" cy="848.25" rx="105" ry="110"/>
</g>
<g id="Layer_4_copy">
	<linearGradient id="SVGID_1_" gradientUnits="userSpaceOnUse" x1="311.2245" y1="909.8212" x2="386.3373" y2="795.946">
		<stop  offset="0" style="stop-color:#D4F4FF"/>
		<stop  offset="0.1498" style="stop-color:#D1F1FC"/>
		<stop  offset="0.2786" style="stop-color:#C8E7F1"/>
		<stop  offset="0.3997" style="stop-color:#BAD6DF"/>
		<stop  offset="0.5162" style="stop-color:#A5BEC6"/>
		<stop  offset="0.6293" style="stop-color:#8A9FA6"/>
		<stop  offset="0.7399" style="stop-color:#69797E"/>
		<stop  offset="0.8484" style="stop-color:#424C50"/>
		<stop  offset="0.9527" style="stop-color:#16191B"/>
		<stop  offset="1" style="stop-color:#000000"/>
	</linearGradient>
	<ellipse class="st5" cx="351.83" cy="848.25" rx="55" ry="65.14"/>
</g>
<g id="Layer_11" class="st6">
	<path class="st7" d="M535.24,504.46c-11.04,12.8-5.41,32.4,1.04,48.03c26.07,63.19,56.54,124.57,91.13,183.54
		c3.59,6.12,7.5,12.49,13.7,15.95s15.36,2.67,18.84-3.51c3.26-5.77,0.33-12.93-2.6-18.87c-6.81-13.81-13.61-27.61-20.42-41.42
		c11.25-2.87,22.77,2.69,32.91,8.33c10.14,5.65,21.16,11.76,32.64,10.08c11.48-1.69,21.29-15.79,14.36-25.11
		c-3.98-5.35-11.27-6.65-17.81-7.94c-70.95-14.03-128.9-78.23-135.62-150.24c-0.71-7.57-0.97-15.43-4.36-22.23
		c-3.4-6.8-11.09-12.2-18.4-10.14c-11.54,3.24-11.74,19.36-9.47,31.13"/>
</g>
<g id="Layer_7" class="st6">
	<path class="st7" d="M652.76,429.83c-5.49-3.74-13.09-4.22-19.02-1.21c-5.93,3.01-9.95,9.39-10.07,15.98
		c-0.11,6.07,2.8,11.76,5.78,17.08c29.34,52.39,72.63,97.08,124.32,128.34c3.77,2.28,7.72,4.54,12.1,5.15
		c11.04,1.53,20.39-7.47,27.79-15.71c-68.45-24.72-123.13-83.81-141.91-153.37"/>
</g>
<g id="Layer_7_copy" class="st6">
	<path class="st7" d="M793.55,347.77c4.32-3.01,2.41-13.11-2.26-14.94c-4.67-1.83-9.62,2.42-12.3,7.86
		c-5.41,10.96-4.2,25.31-2.68,38.28c6.28,53.71,15.29,109.68,41.83,150.84c3.92,6.08,8.47,11.99,14.26,14.12
		c4.49,1.65,10.81-1.16,10.62-7.39c-0.09-2.93-1.64-5.35-3.08-7.56c-33.13-50.64-49.75-119.94-44.85-186.9"/>
</g>
<g id="Layer_9" class="st6">
	<path class="st7" d="M917.27,373.56c-10.49,32.63-9.55,70.04,2.58,101.89c2.05,5.38,4.43,10.71,5.2,16.53
		c0.77,5.82-0.41,12.41-4.38,16.06c-6.91,6.35-17.24,0.36-23-7.39c-12.58-16.91-15.97-40.77-14.89-63.11
		c1.08-22.34,6.08-44.17,8.14-66.42s0.86-46-9.35-64.95c-3.53-6.55-8.2-12.79-8.93-20.48c-0.73-7.69,5.42-16.64,11.59-13.76
		c5.67,9.17,6.33,21.24,10.27,31.57s14.63,19.38,22.89,13.47c8.47-6.06,6.21-20.75,3.77-31.97c-4.42-20.27-5.91-41.41-4.4-62.25
		c0.42-5.78,1.16-11.83,4.14-16.48s8.86-7.27,13.1-4.23c4.88,3.5,4.89,11.6,4.41,18.26c-3.01,41.5-2.46,83.78,6.41,124.12
		s26.57,78.8,53.76,105.83c-9.34,11.17-26.42,6.88-35.86-4.17c-9.44-11.05-13.61-26.59-18.86-40.93
		c-5.26-14.34-12.94-29.08-25.55-34.31c-1.63,3.51-3.25,7.02-4.88,10.53"/>
</g>
<g id="Layer_12">
	<path class="st4" d="M721.66,806.06c-87.33-52.19-149.27-144.92-164.03-245.58c-1.62-11.07-6.25-25.46-17.42-24.94
		c-12.18,0.57-14.37,17.7-12.2,29.7c12.39,68.55,42.98,133.73,87.8,187.07c26.95,32.08,63.31,61.6,105.2,60.63
		c-1.41-7.3-6.79-13.72-13.74-16.38"/>
</g>
<g id="Layer_13">
	<path class="st4" d="M763.24,439.19c-8.05-0.9-15.3,6.06-17.56,13.84c-2.26,7.78-0.77,16.1,0.82,24.04
		c11.64,58.19,27.77,115.38,44.31,172.37c7.22,24.85,15.04,50.63,32.59,69.65c4.86,5.27,13.24,10.03,18.62,5.29
		c5.52-4.86,1.59-13.81-2.4-19.98c-15.35-23.73-27.7-49.4-36.67-76.21c-2.12-6.33-4.07-12.94-3.36-19.57s4.73-13.34,11.12-15.26
		c8.16-2.45,16.33,3.37,22.53,9.22c14.89,14.06,27.53,30.37,42.56,44.28s33.28,25.64,53.66,27.6c2.31,0.22,5.13,0.06,6.27-1.96
		c1.32-2.34-0.66-5.13-2.53-7.05c-26.75-27.49-58.56-49.47-87.22-74.95s-54.91-55.83-65.51-92.69c-4.9-17.05-6.33-35.1-12.99-51.54
		c-1.44-3.55-3.58-7.4-7.32-8.24c-3.73-0.84-7.86,4.2-5.04,6.78"/>
</g>
<g id="Layer_14">
	<path class="st4" d="M872.38,350.34c8.99,5.84,14.18,15.95,21.88,23.41c7.7,7.46,21.1,11.71,28.65,4.1
		c5.59-5.64,4.98-15.02,2.03-22.39c-2.96-7.37-7.83-13.96-9.89-21.63c-2.05-7.67-0.14-17.41,7.07-20.72
		c5.86-2.69,13.06,0.02,17.51,4.69c4.45,4.67,6.8,10.9,9.11,16.92c34.81,90.49,88.44,173.7,156.49,242.77c1.97,2,4,5.31,1.99,7.28
		c-0.98,0.96-2.51,1.02-3.89,0.98c-25.97-0.9-47.64-19.59-65.22-38.73c-17.58-19.14-34.55-40.57-58.69-50.19
		c13.89,31.21,27.79,62.43,41.68,93.64c1.82,4.08,3.67,8.6,2.39,12.88c-1.48,4.95-6.98,7.9-12.15,7.81s-9.99-2.64-14.18-5.66
		c-17.57-12.68-26.91-33.88-32.36-54.86s-7.85-42.8-15.49-63.07c-18.73-49.67-65.51-82.59-95.72-126.25
		c-2.65-3.83-5.29-8.44-3.95-12.9c1.83-6.08,10.36-7.74,15.95-4.74c5.6,3,8.88,8.92,11.87,14.52"/>
</g>
</svg>
